<svg width="373" height="469" viewBox="0 0 373 469" fill="none" xmlns="http://www.w3.org/2000/svg">
<rect x="0.5" y="0.5" width="372" height="54" stroke="#C2EAE0"/>
<rect x="0.5" y="113.5" width="372" height="30" stroke="#C2EAE0"/>
<rect x="0.5" y="308.5" width="372" height="48" stroke="#C2EAE0"/>
<rect x="205.5" y="237.5" width="167" height="29" stroke="#C2EAE0"/>
<rect y="144" width="373" height="93" fill="#C2EAE0"/>
<rect x="16" y="172" width="340" height="40" fill="#2D343F"/>
<rect x="0.5" y="72.5" width="372" height="284" stroke="#C2EAE0"/>
<rect x="0.5" y="414.5" width="116" height="54" stroke="#C2EAE0"/>
<rect x="128.5" y="414.5" width="115" height="54" stroke="#C2EAE0"/>
<rect x="255.5" y="414.5" width="117" height="54" stroke="#C2EAE0"/>
<path d="M37.8769 30.766C37.5549 32.068 36.5889 32.978 34.9509 32.978C33.0609 32.978 31.7169 31.48 31.7169 28.904C31.7169 26.272 33.1169 24.872 34.9089 24.872C36.5189 24.872 37.5269 25.81 37.8209 27.084H39.2069C38.7589 24.914 37.0789 23.668 34.9789 23.668C32.1229 23.668 30.2609 25.768 30.2609 28.904C30.2609 31.984 31.9549 34.182 34.8669 34.182C37.0649 34.182 38.8149 33.006 39.2629 30.766H37.8769ZM47.4998 30.654C47.6538 28.26 46.2958 26.342 43.9858 26.342C41.9278 26.342 40.3318 27.854 40.3318 30.248C40.3318 32.474 41.6478 34.182 44.0278 34.182C45.8618 34.182 47.0658 33.104 47.4018 31.816H46.0858C45.7638 32.558 45.1478 33.062 44.0278 33.062C42.9218 33.062 41.7458 32.278 41.7038 30.654H47.4998ZM43.9858 27.434C45.3438 27.434 46.1138 28.498 46.1558 29.562H41.7178C41.8298 28.05 42.8658 27.434 43.9858 27.434ZM50.2586 26.468H48.9846V34H50.2586V29.912C50.2586 28.274 51.0146 27.448 52.2466 27.448C53.7026 27.448 53.8986 28.456 53.8986 29.618V34H55.1726V29.24C55.1726 27.518 54.5146 26.342 52.6946 26.342C51.4206 26.342 50.6926 26.888 50.2586 27.602V26.468ZM57.4423 26.468H56.2523V27.49H57.4423V32.11C57.4423 33.678 57.7783 34 59.2203 34H60.1443V32.936H59.5003C58.7723 32.936 58.7163 32.74 58.7163 31.956V27.49H60.1443V26.468H58.7163V24.578H57.4423V26.468ZM65.383 26.44C65.229 26.426 65.131 26.426 65.005 26.426C64.011 26.468 63.255 26.93 62.877 27.784V26.468H61.631V34H62.905V30.052C62.905 28.372 63.493 27.742 64.669 27.742C64.879 27.742 65.117 27.756 65.383 27.798V26.44ZM71.0802 30.85C71.0802 32.628 69.9462 33.174 68.7562 33.174C67.8462 33.174 67.3002 32.698 67.3002 31.984C67.3002 30.948 68.7702 30.598 71.0802 30.374V30.85ZM68.4762 34.182C69.8202 34.182 70.5902 33.748 71.0522 32.964C71.0662 33.412 71.1082 33.72 71.1502 34H72.4382C72.2842 33.286 72.2282 32.432 72.2422 31.158L72.2562 29.422C72.2702 27.28 71.3742 26.314 69.2602 26.314C67.8042 26.314 66.3482 27.224 66.2362 28.848H67.5522C67.6082 27.91 68.2102 27.35 69.2742 27.35C70.2262 27.35 70.9822 27.798 70.9822 29.184V29.366C67.9022 29.702 65.8862 30.234 65.8862 32.012C65.8862 33.398 67.0622 34.182 68.4762 34.182ZM75.4285 23.85H74.1545V34H75.4285V23.85ZM77.4494 26.468V34H78.7234V26.468H77.4494ZM77.4494 23.85V25.39H78.7234V23.85H77.4494ZM80.1983 34H86.1203V32.894H81.6963L86.0363 27.574V26.468H80.4783V27.574H84.5523L80.1983 32.894V34ZM94.2303 30.654C94.3843 28.26 93.0263 26.342 90.7163 26.342C88.6583 26.342 87.0623 27.854 87.0623 30.248C87.0623 32.474 88.3783 34.182 90.7583 34.182C92.5923 34.182 93.7963 33.104 94.1323 31.816H92.8163C92.4943 32.558 91.8783 33.062 90.7583 33.062C89.6523 33.062 88.4763 32.278 88.4343 30.654H94.2303ZM90.7163 27.434C92.0743 27.434 92.8443 28.498 92.8863 29.562H88.4483C88.5603 28.05 89.5963 27.434 90.7163 27.434ZM100.949 27.658C100.487 26.86 99.7034 26.342 98.4854 26.342C96.7494 26.342 95.2654 27.798 95.2654 30.262C95.2654 32.768 96.7494 34.182 98.4854 34.182C99.7034 34.182 100.487 33.664 100.949 32.866V34H102.223V23.85H100.949V27.658ZM101.005 30.262C101.005 32.25 99.9414 33.09 98.8074 33.09C97.5054 33.09 96.6514 32.096 96.6514 30.262C96.6514 28.428 97.5054 27.434 98.8074 27.434C99.9414 27.434 101.005 28.274 101.005 30.262ZM109.179 23.85H107.751V34H109.179V23.85ZM116.563 27.658C116.101 26.86 115.317 26.342 114.099 26.342C112.363 26.342 110.879 27.798 110.879 30.262C110.879 32.768 112.363 34.182 114.099 34.182C115.317 34.182 116.101 33.664 116.563 32.866V34H117.837V23.85H116.563V27.658ZM116.619 30.262C116.619 32.25 115.555 33.09 114.421 33.09C113.119 33.09 112.265 32.096 112.265 30.262C112.265 28.428 113.119 27.434 114.421 27.434C115.555 27.434 116.619 28.274 116.619 30.262ZM126.496 30.654C126.65 28.26 125.292 26.342 122.982 26.342C120.924 26.342 119.328 27.854 119.328 30.248C119.328 32.474 120.644 34.182 123.024 34.182C124.858 34.182 126.062 33.104 126.398 31.816H125.082C124.76 32.558 124.144 33.062 123.024 33.062C121.918 33.062 120.742 32.278 120.7 30.654H126.496ZM122.982 27.434C124.34 27.434 125.11 28.498 125.152 29.562H120.714C120.826 28.05 121.862 27.434 122.982 27.434ZM129.255 26.468H127.981V34H129.255V29.912C129.255 28.274 130.011 27.448 131.243 27.448C132.699 27.448 132.895 28.456 132.895 29.618V34H134.169V29.24C134.169 27.518 133.511 26.342 131.691 26.342C130.417 26.342 129.689 26.888 129.255 27.602V26.468ZM136.438 26.468H135.248V27.49H136.438V32.11C136.438 33.678 136.774 34 138.216 34H139.14V32.936H138.496C137.768 32.936 137.712 32.74 137.712 31.956V27.49H139.14V26.468H137.712V24.578H136.438V26.468ZM140.764 26.468V34H142.038V26.468H140.764ZM140.764 23.85V25.39H142.038V23.85H140.764ZM144.423 26.468H143.233V27.49H144.423V32.11C144.423 33.678 144.759 34 146.201 34H147.125V32.936H146.481C145.753 32.936 145.697 32.74 145.697 31.956V27.49H147.125V26.468H145.697V24.578H144.423V26.468ZM152.798 26.468L150.936 32.278L149.018 26.468H147.604L150.32 34L150.264 34.154C149.928 35.33 149.522 35.386 148.682 35.386H148.164V36.45H148.822C150.516 36.45 150.88 35.946 151.44 34.322L154.128 26.468H152.798ZM161.213 34.182C162.655 34.182 163.789 33.622 164.671 32.684L165.903 34H167.737L165.469 31.592C165.987 30.682 166.281 29.618 166.379 28.498H165.063C165.007 29.338 164.839 30.038 164.573 30.654L162.515 28.47C163.761 27.966 164.615 27.126 164.615 25.838C164.615 24.214 163.243 23.654 162.011 23.654C160.429 23.654 159.281 24.508 159.281 25.81C159.281 26.608 159.729 27.322 160.401 28.106C158.847 28.624 157.839 29.632 157.839 31.214C157.839 32.88 159.141 34.182 161.213 34.182ZM161.213 33.076C160.135 33.076 159.197 32.334 159.197 31.158C159.197 30.038 159.925 29.352 161.143 28.918L163.859 31.83C163.159 32.656 162.277 33.076 161.213 33.076ZM160.639 25.712C160.639 25.026 161.325 24.718 162.039 24.718C162.781 24.718 163.397 25.026 163.397 25.852C163.397 26.678 162.725 27.322 161.759 27.672L161.731 27.63C161.171 27.07 160.639 26.342 160.639 25.712ZM170.613 34H172.069L172.853 31.802H177.515L178.313 34H179.853L176.031 23.85H174.379L170.613 34ZM175.163 25.292L177.067 30.584H173.287L175.163 25.292ZM184.054 26.342C181.814 26.342 180.414 28.008 180.414 30.248C180.414 32.544 181.758 34.182 183.928 34.182C185.692 34.182 187.022 32.964 187.288 31.55H185.972C185.79 32.334 185.048 33.062 183.97 33.062C182.85 33.062 181.8 32.138 181.8 30.234C181.8 28.344 182.85 27.462 183.97 27.462C184.964 27.462 185.734 28.092 185.916 28.988H187.204C187.022 27.7 185.888 26.342 184.054 26.342ZM191.915 26.342C189.675 26.342 188.275 28.008 188.275 30.248C188.275 32.544 189.619 34.182 191.789 34.182C193.553 34.182 194.883 32.964 195.149 31.55H193.833C193.651 32.334 192.909 33.062 191.831 33.062C190.711 33.062 189.661 32.138 189.661 30.234C189.661 28.344 190.711 27.462 191.831 27.462C192.825 27.462 193.595 28.092 193.777 28.988H195.065C194.883 27.7 193.749 26.342 191.915 26.342ZM203.304 30.654C203.458 28.26 202.1 26.342 199.79 26.342C197.732 26.342 196.136 27.854 196.136 30.248C196.136 32.474 197.452 34.182 199.832 34.182C201.666 34.182 202.87 33.104 203.206 31.816H201.89C201.568 32.558 200.952 33.062 199.832 33.062C198.726 33.062 197.55 32.278 197.508 30.654H203.304ZM199.79 27.434C201.148 27.434 201.918 28.498 201.96 29.562H197.522C197.634 28.05 198.67 27.434 199.79 27.434ZM210.459 28.666C210.221 27.224 209.157 26.328 207.491 26.328C205.825 26.328 204.481 27.098 204.481 28.428C204.481 29.842 205.601 30.29 206.623 30.514L207.743 30.738C208.555 30.92 209.269 31.2 209.269 31.984C209.269 32.698 208.485 33.104 207.519 33.104C206.399 33.104 205.811 32.53 205.601 31.564H204.257C204.411 32.88 205.531 34.182 207.491 34.182C209.213 34.182 210.557 33.342 210.557 31.844C210.557 30.402 209.353 29.856 207.981 29.604L206.917 29.394C206.189 29.24 205.769 28.974 205.769 28.372C205.769 27.7 206.609 27.42 207.351 27.42C208.247 27.42 208.919 27.77 209.129 28.666H210.459ZM217.814 28.666C217.576 27.224 216.512 26.328 214.846 26.328C213.18 26.328 211.836 27.098 211.836 28.428C211.836 29.842 212.956 30.29 213.978 30.514L215.098 30.738C215.91 30.92 216.624 31.2 216.624 31.984C216.624 32.698 215.84 33.104 214.874 33.104C213.754 33.104 213.166 32.53 212.956 31.564H211.612C211.766 32.88 212.886 34.182 214.846 34.182C216.568 34.182 217.912 33.342 217.912 31.844C217.912 30.402 216.708 29.856 215.336 29.604L214.272 29.394C213.544 29.24 213.124 28.974 213.124 28.372C213.124 27.7 213.964 27.42 214.706 27.42C215.602 27.42 216.274 27.77 216.484 28.666H217.814ZM228.786 34L231.586 25.152V34H233.014V23.85H230.62L228.03 32.306L225.44 23.85H223.046V34H224.474V25.152L227.274 34H228.786ZM239.969 30.85C239.969 32.628 238.835 33.174 237.645 33.174C236.735 33.174 236.189 32.698 236.189 31.984C236.189 30.948 237.659 30.598 239.969 30.374V30.85ZM237.365 34.182C238.709 34.182 239.479 33.748 239.941 32.964C239.955 33.412 239.997 33.72 240.039 34H241.327C241.173 33.286 241.117 32.432 241.131 31.158L241.145 29.422C241.159 27.28 240.263 26.314 238.149 26.314C236.693 26.314 235.237 27.224 235.125 28.848H236.441C236.497 27.91 237.099 27.35 238.163 27.35C239.115 27.35 239.871 27.798 239.871 29.184V29.366C236.791 29.702 234.775 30.234 234.775 32.012C234.775 33.398 235.951 34.182 237.365 34.182ZM244.317 26.468H243.043V34H244.317V29.912C244.317 28.274 245.073 27.448 246.305 27.448C247.761 27.448 247.957 28.456 247.957 29.618V34H249.231V29.24C249.231 27.518 248.573 26.342 246.753 26.342C245.479 26.342 244.751 26.888 244.317 27.602V26.468ZM255.883 30.85C255.883 32.628 254.749 33.174 253.559 33.174C252.649 33.174 252.103 32.698 252.103 31.984C252.103 30.948 253.573 30.598 255.883 30.374V30.85ZM253.279 34.182C254.623 34.182 255.393 33.748 255.855 32.964C255.869 33.412 255.911 33.72 255.953 34H257.241C257.087 33.286 257.031 32.432 257.045 31.158L257.059 29.422C257.073 27.28 256.177 26.314 254.063 26.314C252.607 26.314 251.151 27.224 251.039 28.848H252.355C252.411 27.91 253.013 27.35 254.077 27.35C255.029 27.35 255.785 27.798 255.785 29.184V29.366C252.705 29.702 250.689 30.234 250.689 32.012C250.689 33.398 251.865 34.182 253.279 34.182ZM264.025 27.658C263.563 26.86 262.849 26.342 261.631 26.342C259.965 26.342 258.439 27.7 258.439 30.108C258.439 32.53 259.965 33.874 261.631 33.874C262.849 33.874 263.563 33.37 264.025 32.572V33.286C264.025 34.336 263.801 34.658 263.535 34.952C263.185 35.33 262.681 35.512 261.995 35.512C260.819 35.512 260.399 34.994 260.245 34.322H258.887C259.125 35.876 260.245 36.632 261.981 36.632C263.101 36.632 264.039 36.268 264.585 35.638C265.019 35.162 265.299 34.518 265.299 32.992V26.468H264.025V27.658ZM264.081 30.108C264.081 32.012 263.073 32.796 261.953 32.796C260.707 32.796 259.825 31.858 259.825 30.108C259.825 28.372 260.707 27.434 261.953 27.434C263.073 27.434 264.081 28.204 264.081 30.108ZM273.961 30.654C274.115 28.26 272.757 26.342 270.447 26.342C268.389 26.342 266.793 27.854 266.793 30.248C266.793 32.474 268.109 34.182 270.489 34.182C272.323 34.182 273.527 33.104 273.863 31.816H272.547C272.225 32.558 271.609 33.062 270.489 33.062C269.383 33.062 268.207 32.278 268.165 30.654H273.961ZM270.447 27.434C271.805 27.434 272.575 28.498 272.617 29.562H268.179C268.291 28.05 269.327 27.434 270.447 27.434ZM276.72 29.912C276.72 28.274 277.434 27.448 278.54 27.448C279.926 27.448 280.15 28.456 280.15 29.618V34H281.424V29.912C281.424 28.274 282.138 27.448 283.244 27.448C284.63 27.448 284.854 28.456 284.854 29.618V34H286.128V29.24C286.128 27.518 285.442 26.342 283.692 26.342C282.628 26.342 281.76 26.734 281.158 27.672C280.822 26.832 280.15 26.342 278.988 26.342C277.854 26.342 277.154 26.888 276.72 27.602V26.468H275.446V34H276.72V29.912ZM294.687 30.654C294.841 28.26 293.483 26.342 291.173 26.342C289.115 26.342 287.519 27.854 287.519 30.248C287.519 32.474 288.835 34.182 291.215 34.182C293.049 34.182 294.253 33.104 294.589 31.816H293.273C292.951 32.558 292.335 33.062 291.215 33.062C290.109 33.062 288.933 32.278 288.891 30.654H294.687ZM291.173 27.434C292.531 27.434 293.301 28.498 293.343 29.562H288.905C289.017 28.05 290.053 27.434 291.173 27.434ZM297.446 26.468H296.172V34H297.446V29.912C297.446 28.274 298.202 27.448 299.434 27.448C300.89 27.448 301.086 28.456 301.086 29.618V34H302.36V29.24C302.36 27.518 301.702 26.342 299.882 26.342C298.608 26.342 297.88 26.888 297.446 27.602V26.468ZM304.63 26.468H303.44V27.49H304.63V32.11C304.63 33.678 304.966 34 306.408 34H307.332V32.936H306.688C305.96 32.936 305.904 32.74 305.904 31.956V27.49H307.332V26.468H305.904V24.578H304.63V26.468ZM311.581 30.15C311.581 32.992 312.659 35.218 313.513 36.45H314.563C313.625 34.938 312.897 32.824 312.897 30.15C312.897 27.476 313.625 25.348 314.563 23.85H313.513C312.659 25.082 311.581 27.308 311.581 30.15ZM317.196 23.85H315.768V34H317.196V23.85ZM318.406 34H319.862L320.646 31.802H325.308L326.106 34H327.646L323.824 23.85H322.172L318.406 34ZM322.956 25.292L324.86 30.584H321.08L322.956 25.292ZM334.592 34L337.392 25.152V34H338.82V23.85H336.426L333.836 32.306L331.246 23.85H328.852V34H330.28V25.152L333.08 34H334.592ZM343.003 30.15C343.003 27.308 341.925 25.082 341.071 23.85H340.021C340.959 25.348 341.687 27.504 341.687 30.15C341.687 32.824 340.959 34.938 340.021 36.45H341.071C341.925 35.218 343.003 32.992 343.003 30.15Z" fill="white"/>
<path d="M95.8098 283.85V288.162H90.4758V283.85H89.0478V294H90.4758V289.394H95.8098V294H97.2378V283.85H95.8098ZM104.193 290.85C104.193 292.628 103.059 293.174 101.869 293.174C100.959 293.174 100.413 292.698 100.413 291.984C100.413 290.948 101.883 290.598 104.193 290.374V290.85ZM101.589 294.182C102.933 294.182 103.703 293.748 104.165 292.964C104.179 293.412 104.221 293.72 104.263 294H105.551C105.397 293.286 105.341 292.432 105.355 291.158L105.369 289.422C105.383 287.28 104.487 286.314 102.373 286.314C100.917 286.314 99.4615 287.224 99.3495 288.848H100.665C100.721 287.91 101.323 287.35 102.387 287.35C103.339 287.35 104.095 287.798 104.095 289.184V289.366C101.015 289.702 98.9995 290.234 98.9995 292.012C98.9995 293.398 100.175 294.182 101.589 294.182ZM111.02 286.44C110.866 286.426 110.768 286.426 110.642 286.426C109.648 286.468 108.892 286.93 108.514 287.784V286.468H107.268V294H108.542V290.052C108.542 288.372 109.13 287.742 110.306 287.742C110.516 287.742 110.754 287.756 111.02 287.798V286.44ZM117.274 287.658C116.812 286.86 116.028 286.342 114.81 286.342C113.074 286.342 111.59 287.798 111.59 290.262C111.59 292.768 113.074 294.182 114.81 294.182C116.028 294.182 116.812 293.664 117.274 292.866V294H118.548V283.85H117.274V287.658ZM117.33 290.262C117.33 292.25 116.266 293.09 115.132 293.09C113.83 293.09 112.976 292.096 112.976 290.262C112.976 288.428 113.83 287.434 115.132 287.434C116.266 287.434 117.33 288.274 117.33 290.262ZM127.207 290.654C127.361 288.26 126.003 286.342 123.693 286.342C121.635 286.342 120.039 287.854 120.039 290.248C120.039 292.474 121.355 294.182 123.735 294.182C125.569 294.182 126.773 293.104 127.109 291.816H125.793C125.471 292.558 124.855 293.062 123.735 293.062C122.629 293.062 121.453 292.278 121.411 290.654H127.207ZM123.693 287.434C125.051 287.434 125.821 288.498 125.863 289.562H121.425C121.537 288.05 122.573 287.434 123.693 287.434ZM129.966 286.468H128.692V294H129.966V289.912C129.966 288.274 130.722 287.448 131.954 287.448C133.41 287.448 133.606 288.456 133.606 289.618V294H134.88V289.24C134.88 287.518 134.222 286.342 132.402 286.342C131.128 286.342 130.4 286.888 129.966 287.602V286.468ZM143.435 290.654C143.589 288.26 142.231 286.342 139.921 286.342C137.863 286.342 136.267 287.854 136.267 290.248C136.267 292.474 137.583 294.182 139.963 294.182C141.797 294.182 143.001 293.104 143.337 291.816H142.021C141.699 292.558 141.083 293.062 139.963 293.062C138.857 293.062 137.681 292.278 137.639 290.654H143.435ZM139.921 287.434C141.279 287.434 142.049 288.498 142.091 289.562H137.653C137.765 288.05 138.801 287.434 139.921 287.434ZM150.154 287.658C149.692 286.86 148.908 286.342 147.69 286.342C145.954 286.342 144.47 287.798 144.47 290.262C144.47 292.768 145.954 294.182 147.69 294.182C148.908 294.182 149.692 293.664 150.154 292.866V294H151.428V283.85H150.154V287.658ZM150.21 290.262C150.21 292.25 149.146 293.09 148.012 293.09C146.71 293.09 145.856 292.096 145.856 290.262C145.856 288.428 146.71 287.434 148.012 287.434C149.146 287.434 150.21 288.274 150.21 290.262ZM158.384 283.85H156.956V294H163.746V292.768H158.384V283.85ZM164.758 286.468V294H166.032V286.468H164.758ZM164.758 283.85V285.39H166.032V283.85H164.758ZM169.327 286.468H168.053V294H169.327V289.912C169.327 288.274 170.083 287.448 171.315 287.448C172.771 287.448 172.967 288.456 172.967 289.618V294H174.241V289.24C174.241 287.518 173.583 286.342 171.763 286.342C170.489 286.342 169.761 286.888 169.327 287.602V286.468ZM180.809 294H182.083V286.468H180.809V290.612C180.809 292.25 180.109 293.076 178.891 293.076C177.491 293.076 177.309 292.068 177.309 290.906V286.468H176.035V291.284C176.035 293.006 176.707 294.182 178.443 294.182C179.689 294.182 180.375 293.636 180.809 292.922V294ZM190.012 286.468H188.584L186.736 289.058L184.902 286.468H183.376L185.98 290.122L183.208 294H184.664L186.694 291.13L188.738 294H190.264L187.45 290.066L190.012 286.468ZM195.861 288.918C195.861 286.3 197.303 284.872 199.165 284.872C201.013 284.872 202.469 286.3 202.469 288.918C202.469 291.536 201.013 292.978 199.165 292.978C197.303 292.978 195.861 291.536 195.861 288.918ZM203.925 288.918C203.925 285.852 202.077 283.668 199.165 283.668C196.253 283.668 194.405 285.852 194.405 288.918C194.405 291.984 196.253 294.182 199.165 294.182C202.077 294.182 203.925 291.984 203.925 288.918ZM205.358 286.44C205.358 288.12 206.744 288.904 208.144 289.212L209.404 289.478C210.678 289.772 211.588 290.192 211.588 291.27C211.588 292.278 210.734 292.978 209.222 292.978C207.64 292.978 206.688 292.25 206.422 290.85H205.022C205.288 292.866 206.8 294.182 209.194 294.182C211.21 294.182 213.058 293.118 213.058 291.144C213.058 289.1 211.196 288.512 209.642 288.176L208.466 287.91C207.514 287.7 206.814 287.252 206.814 286.356C206.814 285.222 208.186 284.872 208.97 284.872C209.978 284.872 211.154 285.278 211.49 286.44H212.876C212.47 284.494 210.86 283.668 209.026 283.668C207.388 283.668 205.358 284.494 205.358 286.44ZM217.313 290.15C217.313 292.992 218.391 295.218 219.245 296.45H220.295C219.357 294.938 218.629 292.824 218.629 290.15C218.629 287.476 219.357 285.348 220.295 283.85H219.245C218.391 285.082 217.313 287.308 217.313 290.15ZM228.627 290.766C228.305 292.068 227.339 292.978 225.701 292.978C223.811 292.978 222.467 291.48 222.467 288.904C222.467 286.272 223.867 284.872 225.659 284.872C227.269 284.872 228.277 285.81 228.571 287.084H229.957C229.509 284.914 227.829 283.668 225.729 283.668C222.873 283.668 221.011 285.768 221.011 288.904C221.011 291.984 222.705 294.182 225.617 294.182C227.815 294.182 229.565 293.006 230.013 290.766H228.627ZM238.25 290.654C238.404 288.26 237.046 286.342 234.736 286.342C232.678 286.342 231.082 287.854 231.082 290.248C231.082 292.474 232.398 294.182 234.778 294.182C236.612 294.182 237.816 293.104 238.152 291.816H236.836C236.514 292.558 235.898 293.062 234.778 293.062C233.672 293.062 232.496 292.278 232.454 290.654H238.25ZM234.736 287.434C236.094 287.434 236.864 288.498 236.906 289.562H232.468C232.58 288.05 233.616 287.434 234.736 287.434ZM241.009 286.468H239.735V294H241.009V289.912C241.009 288.274 241.765 287.448 242.997 287.448C244.453 287.448 244.649 288.456 244.649 289.618V294H245.923V289.24C245.923 287.518 245.265 286.342 243.445 286.342C242.171 286.342 241.443 286.888 241.009 287.602V286.468ZM248.192 286.468H247.002V287.49H248.192V292.11C248.192 293.678 248.528 294 249.97 294H250.894V292.936H250.25C249.522 292.936 249.466 292.74 249.466 291.956V287.49H250.894V286.468H249.466V284.578H248.192V286.468ZM253.543 288.918C253.543 286.3 254.985 284.872 256.847 284.872C258.695 284.872 260.151 286.3 260.151 288.918C260.151 291.536 258.695 292.978 256.847 292.978C254.985 292.978 253.543 291.536 253.543 288.918ZM261.607 288.918C261.607 285.852 259.759 283.668 256.847 283.668C253.935 283.668 252.087 285.852 252.087 288.918C252.087 291.984 253.935 294.182 256.847 294.182C259.759 294.182 261.607 291.984 261.607 288.918ZM263.04 286.44C263.04 288.12 264.426 288.904 265.826 289.212L267.086 289.478C268.36 289.772 269.27 290.192 269.27 291.27C269.27 292.278 268.416 292.978 266.904 292.978C265.322 292.978 264.37 292.25 264.104 290.85H262.704C262.97 292.866 264.482 294.182 266.876 294.182C268.892 294.182 270.74 293.118 270.74 291.144C270.74 289.1 268.878 288.512 267.324 288.176L266.148 287.91C265.196 287.7 264.496 287.252 264.496 286.356C264.496 285.222 265.868 284.872 266.652 284.872C267.66 284.872 268.836 285.278 269.172 286.44H270.558C270.152 284.494 268.542 283.668 266.708 283.668C265.07 283.668 263.04 284.494 263.04 286.44ZM274.701 285.04H280.245C277.683 287.266 276.115 290.318 275.891 294H277.431C277.669 290.178 279.195 287.098 281.729 285.04V283.85H274.701V285.04ZM284.707 290.15C284.707 287.308 283.629 285.082 282.775 283.85H281.725C282.663 285.348 283.391 287.504 283.391 290.15C283.391 292.824 282.663 294.938 281.725 296.45H282.775C283.629 295.218 284.707 292.992 284.707 290.15Z" fill="white"/>
<path d="M25.2884 198H27.0664V189.334H30.2584V187.85H22.0964V189.334H25.2884V198ZM32.9292 187.85H31.2632V198H32.9292V193.996C32.9292 192.638 33.3912 191.658 34.6792 191.658C35.9672 191.658 36.1072 192.666 36.1072 193.674V198H37.7732V193.268C37.7732 191.476 37.0312 190.3 35.2112 190.3C34.1472 190.3 33.3632 190.734 32.9292 191.518V187.85ZM46.3113 194.71C46.4653 192.19 45.0093 190.3 42.6993 190.3C40.5713 190.3 39.0033 191.91 39.0033 194.178C39.0033 196.348 40.3893 198.182 42.8113 198.182C44.7433 198.182 45.8913 196.95 46.2273 195.746H44.5893C44.2953 196.46 43.6233 196.796 42.7413 196.796C41.7893 196.796 40.8093 196.11 40.6973 194.71H46.3113ZM42.6993 191.602C43.6793 191.602 44.5753 192.316 44.6173 193.492H40.6973C40.8513 192.078 41.9153 191.602 42.6993 191.602ZM54.7737 193.632C55.7397 193.814 56.8597 194.15 56.8597 195.2C56.8597 196.18 55.8937 196.726 54.6897 196.726C53.2757 196.726 52.4077 196.026 52.0857 194.64H50.3357C50.5597 196.88 52.1837 198.182 54.6057 198.182C56.6077 198.182 58.6377 197.146 58.6377 195.088C58.6377 193.058 56.9437 192.386 55.1657 192.05L53.9197 191.812C53.0377 191.644 52.4077 191.252 52.4077 190.468C52.4077 189.474 53.5697 189.124 54.3537 189.124C55.3617 189.124 56.4117 189.46 56.7057 190.692H58.4277C58.0217 188.578 56.4677 187.668 54.4517 187.668C52.5897 187.668 50.6157 188.634 50.6157 190.524C50.6157 192.246 51.9317 193.058 53.5417 193.394L54.7737 193.632ZM67.1473 194.71C67.3013 192.19 65.8453 190.3 63.5353 190.3C61.4073 190.3 59.8393 191.91 59.8393 194.178C59.8393 196.348 61.2253 198.182 63.6473 198.182C65.5793 198.182 66.7273 196.95 67.0633 195.746H65.4253C65.1313 196.46 64.4593 196.796 63.5773 196.796C62.6253 196.796 61.6453 196.11 61.5333 194.71H67.1473ZM63.5353 191.602C64.5153 191.602 65.4113 192.316 65.4533 193.492H61.5333C61.6873 192.078 62.7513 191.602 63.5353 191.602ZM71.7791 190.3C69.5251 190.3 68.0831 192.008 68.0831 194.248C68.0831 196.488 69.5251 198.182 71.7091 198.182C73.3191 198.182 74.8731 197.188 75.2091 195.424H73.5851C73.3611 196.432 72.5631 196.796 71.7371 196.796C70.7571 196.796 69.8051 196.026 69.8051 194.234C69.8051 192.456 70.7291 191.686 71.7791 191.686C72.6891 191.686 73.3751 192.246 73.5291 193.044H75.1531C74.8591 191.378 73.4311 190.3 71.7791 190.3ZM81.1514 198H82.8174V190.468H81.1514V194.486C81.1514 195.844 80.7034 196.824 79.4574 196.824C78.2114 196.824 78.0714 195.816 78.0714 194.808V190.468H76.4054V195.214C76.4054 197.006 77.1334 198.182 78.9254 198.182C79.9474 198.182 80.7174 197.748 81.1514 196.964V198ZM88.8089 190.482C88.6829 190.468 88.5009 190.454 88.3749 190.454C87.4649 190.468 86.7369 190.972 86.3309 191.812V190.468H84.6929V198H86.3589V194.052C86.3589 192.54 86.9609 192.12 88.0109 192.12C88.2629 192.12 88.5289 192.134 88.8089 192.162V190.482ZM96.5008 194.71C96.6548 192.19 95.1988 190.3 92.8888 190.3C90.7608 190.3 89.1928 191.91 89.1928 194.178C89.1928 196.348 90.5788 198.182 93.0008 198.182C94.9328 198.182 96.0808 196.95 96.4168 195.746H94.7788C94.4848 196.46 93.8128 196.796 92.9308 196.796C91.9788 196.796 90.9988 196.11 90.8868 194.71H96.5008ZM92.8888 191.602C93.8688 191.602 94.7648 192.316 94.8068 193.492H90.8868C91.0408 192.078 92.1048 191.602 92.8888 191.602ZM102.953 191.476C102.505 190.734 101.721 190.3 100.713 190.3C98.9206 190.3 97.4366 191.84 97.4366 194.234C97.4366 196.656 98.9206 198.182 100.713 198.182C101.721 198.182 102.505 197.748 102.953 197.006V198H104.619V187.85H102.953V191.476ZM103.023 194.234C103.023 195.97 102.155 196.824 101.077 196.824C99.9566 196.824 99.1726 195.858 99.1726 194.234C99.1726 192.652 99.9566 191.658 101.077 191.658C102.155 191.658 103.023 192.498 103.023 194.234ZM113.59 193.632C114.556 193.814 115.676 194.15 115.676 195.2C115.676 196.18 114.71 196.726 113.506 196.726C112.092 196.726 111.224 196.026 110.902 194.64H109.152C109.376 196.88 111 198.182 113.422 198.182C115.424 198.182 117.454 197.146 117.454 195.088C117.454 193.058 115.76 192.386 113.982 192.05L112.736 191.812C111.854 191.644 111.224 191.252 111.224 190.468C111.224 189.474 112.386 189.124 113.17 189.124C114.178 189.124 115.228 189.46 115.522 190.692H117.244C116.838 188.578 115.284 187.668 113.268 187.668C111.406 187.668 109.432 188.634 109.432 190.524C109.432 192.246 110.748 193.058 112.358 193.394L113.59 193.632ZM120.378 194.248C120.378 192.512 121.302 191.658 122.366 191.658C123.43 191.658 124.354 192.512 124.354 194.248C124.354 195.998 123.43 196.824 122.366 196.824C121.302 196.824 120.378 195.998 120.378 194.248ZM122.366 190.3C120.532 190.3 118.656 191.532 118.656 194.248C118.656 196.978 120.532 198.182 122.366 198.182C124.2 198.182 126.076 196.978 126.076 194.248C126.076 191.532 124.2 190.3 122.366 190.3ZM127.737 190.468H126.687V191.672H127.737V198H129.403V191.672H130.887V190.468H129.403V190.062C129.403 189.278 129.585 189.124 130.411 189.124H130.887V187.85H130.229C128.395 187.85 127.737 188.256 127.737 190.006V190.468ZM132.277 190.468H131.157V191.672H132.277V196.026C132.277 197.566 132.599 198 134.209 198H135.441V196.726H134.839C134.125 196.726 133.943 196.544 133.943 195.774V191.672H135.455V190.468H133.943V188.48H132.277V190.468ZM138.84 195.816L137.734 190.468H135.928L137.93 198H139.512L140.996 192.428L142.48 198H144.062L146.064 190.468H144.258L143.152 195.816L141.85 190.468H140.128L138.84 195.816ZM151.535 195.032C151.535 196.32 150.807 196.936 149.575 196.936C148.735 196.936 148.189 196.544 148.189 195.886C148.189 195.032 149.169 194.682 151.535 194.458V195.032ZM149.211 198.182C150.331 198.182 151.199 197.804 151.689 196.978C151.731 197.496 151.773 197.678 151.829 198H153.355C153.201 197.37 153.131 196.376 153.131 195.424C153.131 194.738 153.159 193.842 153.159 193.478C153.201 191.07 151.787 190.244 149.981 190.244C148.161 190.244 146.887 191.308 146.775 192.834H148.413C148.455 191.924 149.085 191.476 149.925 191.476C150.765 191.476 151.493 191.868 151.493 193.156V193.296C148.749 193.59 146.425 194.038 146.425 195.928C146.425 197.3 147.573 198.182 149.211 198.182ZM158.959 190.482C158.833 190.468 158.651 190.454 158.525 190.454C157.615 190.468 156.887 190.972 156.481 191.812V190.468H154.843V198H156.509V194.052C156.509 192.54 157.111 192.12 158.161 192.12C158.413 192.12 158.679 192.134 158.959 192.162V190.482ZM166.651 194.71C166.805 192.19 165.349 190.3 163.039 190.3C160.911 190.3 159.343 191.91 159.343 194.178C159.343 196.348 160.729 198.182 163.151 198.182C165.083 198.182 166.231 196.95 166.567 195.746H164.929C164.635 196.46 163.963 196.796 163.081 196.796C162.129 196.796 161.149 196.11 161.037 194.71H166.651ZM163.039 191.602C164.019 191.602 164.915 192.316 164.957 193.492H161.037C161.191 192.078 162.255 191.602 163.039 191.602ZM172.663 194.976V193.478H168.099V194.976H172.663ZM180.949 192.918C180.949 196.124 178.989 196.572 177.043 196.572H176.133V189.278H177.043C178.989 189.278 180.949 189.712 180.949 192.918ZM174.355 187.85V198H177.127C180.333 198 182.797 196.88 182.797 192.918C182.797 188.956 180.333 187.85 177.127 187.85H174.355ZM191.274 194.71C191.428 192.19 189.972 190.3 187.662 190.3C185.534 190.3 183.966 191.91 183.966 194.178C183.966 196.348 185.352 198.182 187.774 198.182C189.706 198.182 190.854 196.95 191.19 195.746H189.552C189.258 196.46 188.586 196.796 187.704 196.796C186.752 196.796 185.772 196.11 185.66 194.71H191.274ZM187.662 191.602C188.642 191.602 189.538 192.316 189.58 193.492H185.66C185.814 192.078 186.878 191.602 187.662 191.602ZM192.938 190.468H191.888V191.672H192.938V198H194.604V191.672H196.088V190.468H194.604V190.062C194.604 189.278 194.786 189.124 195.612 189.124H196.088V187.85H195.43C193.596 187.85 192.938 188.256 192.938 190.006V190.468ZM197.24 187.85V189.53H198.906V187.85H197.24ZM197.24 190.468V198H198.906V190.468H197.24ZM202.447 190.468H200.781V198H202.447V193.996C202.447 192.638 202.909 191.658 204.197 191.658C205.485 191.658 205.625 192.666 205.625 193.674V198H207.291V193.268C207.291 191.476 206.549 190.3 204.729 190.3C203.665 190.3 202.881 190.734 202.447 191.518V190.468ZM215.829 194.71C215.983 192.19 214.527 190.3 212.217 190.3C210.089 190.3 208.521 191.91 208.521 194.178C208.521 196.348 209.907 198.182 212.329 198.182C214.261 198.182 215.409 196.95 215.745 195.746H214.107C213.813 196.46 213.141 196.796 212.259 196.796C211.307 196.796 210.327 196.11 210.215 194.71H215.829ZM212.217 191.602C213.197 191.602 214.093 192.316 214.135 193.492H210.215C210.369 192.078 211.433 191.602 212.217 191.602ZM222.281 191.476C221.833 190.734 221.049 190.3 220.041 190.3C218.249 190.3 216.765 191.84 216.765 194.234C216.765 196.656 218.249 198.182 220.041 198.182C221.049 198.182 221.833 197.748 222.281 197.006V198H223.947V187.85H222.281V191.476ZM222.351 194.234C222.351 195.97 221.483 196.824 220.405 196.824C219.285 196.824 218.501 195.858 218.501 194.234C218.501 192.652 219.285 191.658 220.405 191.658C221.483 191.658 222.351 192.498 222.351 194.234ZM230.916 187.85H229.138V198H230.916V187.85ZM232.966 187.85V198H234.744V194.164H236.34C238.734 194.164 240.624 193.604 240.624 191.042C240.624 188.2 238.552 187.85 236.312 187.85H232.966ZM236.312 189.278C237.558 189.278 238.776 189.418 238.776 191.056C238.776 192.512 237.74 192.708 236.396 192.708H234.744V189.278H236.312ZM239.806 198H241.626L242.41 195.746H246.526L247.324 198H249.27L245.462 187.85H243.586L239.806 198ZM244.454 189.908L245.994 194.262H242.928L244.454 189.908ZM256.407 198L258.983 189.782V198H260.719V187.85H257.961L255.511 195.942L253.047 187.85H250.289V198H252.025V189.782L254.601 198H256.407ZM272.942 194.626C272.62 196.026 271.668 196.726 270.282 196.726C268.658 196.726 267.412 195.354 267.412 192.89C267.412 190.44 268.686 189.124 270.296 189.124C271.626 189.124 272.592 189.838 272.914 191.224H274.622C274.216 188.928 272.634 187.668 270.352 187.668C267.398 187.668 265.578 189.712 265.578 192.89C265.578 196.082 267.3 198.182 270.268 198.182C272.634 198.182 274.216 196.922 274.65 194.626H272.942ZM277.481 194.248C277.481 192.512 278.405 191.658 279.469 191.658C280.533 191.658 281.457 192.512 281.457 194.248C281.457 195.998 280.533 196.824 279.469 196.824C278.405 196.824 277.481 195.998 277.481 194.248ZM279.469 190.3C277.635 190.3 275.759 191.532 275.759 194.248C275.759 196.978 277.635 198.182 279.469 198.182C281.303 198.182 283.179 196.978 283.179 194.248C283.179 191.532 281.303 190.3 279.469 190.3ZM286.214 193.996C286.214 192.638 286.634 191.658 287.866 191.658C289.098 191.658 289.196 192.666 289.196 193.674V198H290.862V193.996C290.862 192.638 291.282 191.658 292.514 191.658C293.746 191.658 293.844 192.666 293.844 193.674V198H295.51V193.268C295.51 191.476 294.838 190.3 293.046 190.3C292.108 190.3 291.254 190.678 290.596 191.63C290.246 190.79 289.574 190.3 288.398 190.3C287.39 190.3 286.648 190.734 286.214 191.518V190.468H284.548V198H286.214V193.996ZM298.846 194.234C298.846 192.498 299.686 191.658 300.792 191.658C301.968 191.658 302.654 192.624 302.654 194.234C302.654 195.858 301.968 196.824 300.792 196.824C299.686 196.824 298.846 195.97 298.846 194.234ZM297.25 190.468V200.45H298.916V197.006C299.364 197.748 300.148 198.182 301.156 198.182C303.004 198.182 304.39 196.656 304.39 194.234C304.39 191.84 303.004 190.3 301.156 190.3C300.148 190.3 299.364 190.734 298.916 191.476V190.468H297.25ZM307.053 194.248C307.053 192.512 307.977 191.658 309.041 191.658C310.105 191.658 311.029 192.512 311.029 194.248C311.029 195.998 310.105 196.824 309.041 196.824C307.977 196.824 307.053 195.998 307.053 194.248ZM309.041 190.3C307.207 190.3 305.331 191.532 305.331 194.248C305.331 196.978 307.207 198.182 309.041 198.182C310.875 198.182 312.751 196.978 312.751 194.248C312.751 191.532 310.875 190.3 309.041 190.3ZM315.787 190.468H314.121V198H315.787V193.996C315.787 192.638 316.249 191.658 317.537 191.658C318.825 191.658 318.965 192.666 318.965 193.674V198H320.631V193.268C320.631 191.476 319.889 190.3 318.069 190.3C317.005 190.3 316.221 190.734 315.787 191.518V190.468ZM329.169 194.71C329.323 192.19 327.867 190.3 325.557 190.3C323.429 190.3 321.861 191.91 321.861 194.178C321.861 196.348 323.247 198.182 325.669 198.182C327.601 198.182 328.749 196.95 329.085 195.746H327.447C327.153 196.46 326.481 196.796 325.599 196.796C324.647 196.796 323.667 196.11 323.555 194.71H329.169ZM325.557 191.602C326.537 191.602 327.433 192.316 327.475 193.492H323.555C323.709 192.078 324.773 191.602 325.557 191.602ZM332.207 190.468H330.541V198H332.207V193.996C332.207 192.638 332.669 191.658 333.957 191.658C335.245 191.658 335.385 192.666 335.385 193.674V198H337.051V193.268C337.051 191.476 336.309 190.3 334.489 190.3C333.425 190.3 332.641 190.734 332.207 191.518V190.468ZM339.023 190.468H337.903V191.672H339.023V196.026C339.023 197.566 339.345 198 340.955 198H342.187V196.726H341.585C340.871 196.726 340.689 196.544 340.689 195.774V191.672H342.201V190.468H340.689V188.48H339.023V190.468ZM349.408 192.526C349.1 191.014 347.756 190.3 346.286 190.3C344.662 190.3 343.22 191.154 343.22 192.484C343.22 193.87 344.214 194.416 345.488 194.682L346.622 194.906C347.364 195.06 347.924 195.326 347.924 195.942C347.924 196.558 347.294 196.922 346.412 196.922C345.418 196.922 344.872 196.488 344.718 195.704H343.094C343.276 197.118 344.508 198.182 346.356 198.182C348.064 198.182 349.548 197.314 349.548 195.746C349.548 194.276 348.386 193.8 346.86 193.506L345.796 193.296C345.138 193.17 344.788 192.904 344.788 192.4C344.788 191.896 345.46 191.574 346.188 191.574C347.028 191.574 347.658 191.84 347.84 192.526H349.408Z" fill="#C2EAE0"/>
<path d="M103.238 152.85H101.81V163H103.238V152.85ZM106.73 155.468H105.456V163H106.73V158.912C106.73 157.274 107.486 156.448 108.718 156.448C110.174 156.448 110.37 157.456 110.37 158.618V163H111.644V158.24C111.644 156.518 110.986 155.342 109.166 155.342C107.892 155.342 107.164 155.888 106.73 156.602V155.468ZM113.914 155.468H112.724V156.49H113.914V161.11C113.914 162.678 114.25 163 115.692 163H116.616V161.936H115.972C115.244 161.936 115.188 161.74 115.188 160.956V156.49H116.616V155.468H115.188V153.578H113.914V155.468ZM124.684 159.654C124.838 157.26 123.48 155.342 121.17 155.342C119.112 155.342 117.516 156.854 117.516 159.248C117.516 161.474 118.832 163.182 121.212 163.182C123.046 163.182 124.25 162.104 124.586 160.816H123.27C122.948 161.558 122.332 162.062 121.212 162.062C120.106 162.062 118.93 161.278 118.888 159.654H124.684ZM121.17 156.434C122.528 156.434 123.298 157.498 123.34 158.562H118.902C119.014 157.05 120.05 156.434 121.17 156.434ZM129.921 155.44C129.767 155.426 129.669 155.426 129.543 155.426C128.549 155.468 127.793 155.93 127.415 156.784V155.468H126.169V163H127.443V159.052C127.443 157.372 128.031 156.742 129.207 156.742C129.417 156.742 129.655 156.756 129.921 156.798V155.44ZM132.42 155.468H131.146V163H132.42V158.912C132.42 157.274 133.176 156.448 134.408 156.448C135.864 156.448 136.06 157.456 136.06 158.618V163H137.334V158.24C137.334 156.518 136.676 155.342 134.856 155.342C133.582 155.342 132.854 155.888 132.42 156.602V155.468ZM143.985 159.85C143.985 161.628 142.851 162.174 141.661 162.174C140.751 162.174 140.205 161.698 140.205 160.984C140.205 159.948 141.675 159.598 143.985 159.374V159.85ZM141.381 163.182C142.725 163.182 143.495 162.748 143.957 161.964C143.971 162.412 144.013 162.72 144.055 163H145.343C145.189 162.286 145.133 161.432 145.147 160.158L145.161 158.422C145.175 156.28 144.279 155.314 142.165 155.314C140.709 155.314 139.253 156.224 139.141 157.848H140.457C140.513 156.91 141.115 156.35 142.179 156.35C143.131 156.35 143.887 156.798 143.887 158.184V158.366C140.807 158.702 138.791 159.234 138.791 161.012C138.791 162.398 139.967 163.182 141.381 163.182ZM148.334 152.85H147.06V163H148.334V152.85ZM153.453 155.44C153.453 157.12 154.839 157.904 156.239 158.212L157.499 158.478C158.773 158.772 159.683 159.192 159.683 160.27C159.683 161.278 158.829 161.978 157.317 161.978C155.735 161.978 154.783 161.25 154.517 159.85H153.117C153.383 161.866 154.895 163.182 157.289 163.182C159.305 163.182 161.153 162.118 161.153 160.144C161.153 158.1 159.291 157.512 157.737 157.176L156.561 156.91C155.609 156.7 154.909 156.252 154.909 155.356C154.909 154.222 156.281 153.872 157.065 153.872C158.073 153.872 159.249 154.278 159.585 155.44H160.971C160.565 153.494 158.955 152.668 157.121 152.668C155.483 152.668 153.453 153.494 153.453 155.44ZM169.501 159.654C169.655 157.26 168.297 155.342 165.987 155.342C163.929 155.342 162.333 156.854 162.333 159.248C162.333 161.474 163.649 163.182 166.029 163.182C167.863 163.182 169.067 162.104 169.403 160.816H168.087C167.765 161.558 167.149 162.062 166.029 162.062C164.923 162.062 163.747 161.278 163.705 159.654H169.501ZM165.987 156.434C167.345 156.434 168.115 157.498 168.157 158.562H163.719C163.831 157.05 164.867 156.434 165.987 156.434ZM174.176 155.342C171.936 155.342 170.536 157.008 170.536 159.248C170.536 161.544 171.88 163.182 174.05 163.182C175.814 163.182 177.144 161.964 177.41 160.55H176.094C175.912 161.334 175.17 162.062 174.092 162.062C172.972 162.062 171.922 161.138 171.922 159.234C171.922 157.344 172.972 156.462 174.092 156.462C175.086 156.462 175.856 157.092 176.038 157.988H177.326C177.144 156.7 176.01 155.342 174.176 155.342ZM183.509 163H184.783V155.468H183.509V159.612C183.509 161.25 182.809 162.076 181.591 162.076C180.191 162.076 180.009 161.068 180.009 159.906V155.468H178.735V160.284C178.735 162.006 179.407 163.182 181.143 163.182C182.389 163.182 183.075 162.636 183.509 161.922V163ZM190.556 155.44C190.402 155.426 190.304 155.426 190.178 155.426C189.184 155.468 188.428 155.93 188.05 156.784V155.468H186.804V163H188.078V159.052C188.078 157.372 188.666 156.742 189.842 156.742C190.052 156.742 190.29 156.756 190.556 156.798V155.44ZM191.78 155.468V163H193.054V155.468H191.78ZM191.78 152.85V154.39H193.054V152.85H191.78ZM195.439 155.468H194.249V156.49H195.439V161.11C195.439 162.678 195.775 163 197.217 163H198.141V161.936H197.497C196.769 161.936 196.713 161.74 196.713 160.956V156.49H198.141V155.468H196.713V153.578H195.439V155.468ZM203.814 155.468L201.952 161.278L200.034 155.468H198.62L201.336 163L201.28 163.154C200.944 164.33 200.538 164.386 199.698 164.386H199.18V165.45H199.838C201.532 165.45 201.896 164.946 202.456 163.322L205.144 155.468H203.814ZM215.408 163L218.208 154.152V163H219.636V152.85H217.242L214.652 161.306L212.062 152.85H209.668V163H211.096V154.152L213.896 163H215.408ZM228.495 159.654C228.649 157.26 227.291 155.342 224.981 155.342C222.923 155.342 221.327 156.854 221.327 159.248C221.327 161.474 222.643 163.182 225.023 163.182C226.857 163.182 228.061 162.104 228.397 160.816H227.081C226.759 161.558 226.143 162.062 225.023 162.062C223.917 162.062 222.741 161.278 222.699 159.654H228.495ZM224.981 156.434C226.339 156.434 227.109 157.498 227.151 158.562H222.713C222.825 157.05 223.861 156.434 224.981 156.434ZM234.657 159.85C234.657 161.628 233.523 162.174 232.333 162.174C231.423 162.174 230.877 161.698 230.877 160.984C230.877 159.948 232.347 159.598 234.657 159.374V159.85ZM232.053 163.182C233.397 163.182 234.167 162.748 234.629 161.964C234.643 162.412 234.685 162.72 234.727 163H236.015C235.861 162.286 235.805 161.432 235.819 160.158L235.833 158.422C235.847 156.28 234.951 155.314 232.837 155.314C231.381 155.314 229.925 156.224 229.813 157.848H231.129C231.185 156.91 231.787 156.35 232.851 156.35C233.803 156.35 234.559 156.798 234.559 158.184V158.366C231.479 158.702 229.463 159.234 229.463 161.012C229.463 162.398 230.639 163.182 232.053 163.182ZM243.374 157.666C243.136 156.224 242.072 155.328 240.406 155.328C238.74 155.328 237.396 156.098 237.396 157.428C237.396 158.842 238.516 159.29 239.538 159.514L240.658 159.738C241.47 159.92 242.184 160.2 242.184 160.984C242.184 161.698 241.4 162.104 240.434 162.104C239.314 162.104 238.726 161.53 238.516 160.564H237.172C237.326 161.88 238.446 163.182 240.406 163.182C242.128 163.182 243.472 162.342 243.472 160.844C243.472 159.402 242.268 158.856 240.896 158.604L239.832 158.394C239.104 158.24 238.684 157.974 238.684 157.372C238.684 156.7 239.524 156.42 240.266 156.42C241.162 156.42 241.834 156.77 242.044 157.666H243.374ZM249.749 163H251.023V155.468H249.749V159.612C249.749 161.25 249.049 162.076 247.831 162.076C246.431 162.076 246.249 161.068 246.249 159.906V155.468H244.975V160.284C244.975 162.006 245.647 163.182 247.383 163.182C248.629 163.182 249.315 162.636 249.749 161.922V163ZM256.796 155.44C256.642 155.426 256.544 155.426 256.418 155.426C255.424 155.468 254.668 155.93 254.29 156.784V155.468H253.044V163H254.318V159.052C254.318 157.372 254.906 156.742 256.082 156.742C256.292 156.742 256.53 156.756 256.796 156.798V155.44ZM264.534 159.654C264.688 157.26 263.33 155.342 261.02 155.342C258.962 155.342 257.366 156.854 257.366 159.248C257.366 161.474 258.682 163.182 261.062 163.182C262.896 163.182 264.1 162.104 264.436 160.816H263.12C262.798 161.558 262.182 162.062 261.062 162.062C259.956 162.062 258.78 161.278 258.738 159.654H264.534ZM261.02 156.434C262.378 156.434 263.148 157.498 263.19 158.562H258.752C258.864 157.05 259.9 156.434 261.02 156.434ZM271.688 157.666C271.45 156.224 270.386 155.328 268.72 155.328C267.054 155.328 265.71 156.098 265.71 157.428C265.71 158.842 266.83 159.29 267.852 159.514L268.972 159.738C269.784 159.92 270.498 160.2 270.498 160.984C270.498 161.698 269.714 162.104 268.748 162.104C267.628 162.104 267.04 161.53 266.83 160.564H265.486C265.64 161.88 266.76 163.182 268.72 163.182C270.442 163.182 271.786 162.342 271.786 160.844C271.786 159.402 270.582 158.856 269.21 158.604L268.146 158.394C267.418 158.24 266.998 157.974 266.998 157.372C266.998 156.7 267.838 156.42 268.58 156.42C269.476 156.42 270.148 156.77 270.358 157.666H271.688Z" fill="#2D343F"/>
<path d="M19.7631 134H21.3591L19.0071 129.492C20.2531 129.156 21.0231 128.386 21.0231 126.776C21.0231 124.34 19.2591 123.85 16.7951 123.85H13.5751V134H15.0031V129.73H16.7951C17.0611 129.73 17.2991 129.73 17.5651 129.716L19.7631 134ZM16.9071 125.054C18.4051 125.054 19.5531 125.236 19.5531 126.804C19.5531 128.372 18.4051 128.526 16.9071 128.526H15.0031V125.054H16.9071ZM23.077 134H29.965V132.768H24.505V129.394H29.643V128.162H24.505V125.082H29.965V123.85H23.077V134ZM31.243 126.44C31.243 128.12 32.629 128.904 34.029 129.212L35.289 129.478C36.563 129.772 37.473 130.192 37.473 131.27C37.473 132.278 36.619 132.978 35.107 132.978C33.525 132.978 32.573 132.25 32.307 130.85H30.907C31.173 132.866 32.685 134.182 35.079 134.182C37.095 134.182 38.943 133.118 38.943 131.144C38.943 129.1 37.081 128.512 35.527 128.176L34.351 127.91C33.399 127.7 32.699 127.252 32.699 126.356C32.699 125.222 34.071 124.872 34.855 124.872C35.863 124.872 37.039 125.278 37.375 126.44H38.761C38.355 124.494 36.745 123.668 34.911 123.668C33.273 123.668 31.243 124.494 31.243 126.44ZM42.595 134H44.023V125.082H47.327V123.85H39.291V125.082H42.595V134ZM50.6523 134H52.1083L52.8923 131.802H57.5543L58.3523 134H59.8923L56.0703 123.85H54.4183L50.6523 134ZM55.2023 125.292L57.1063 130.584H53.3263L55.2023 125.292ZM61.0985 123.85V134H62.5265V129.982H64.2765C66.7545 129.982 68.4905 129.436 68.4905 126.916C68.4905 124.41 66.7545 123.85 64.2765 123.85H61.0985ZM64.3885 125.054C65.8865 125.054 67.0345 125.264 67.0345 126.916C67.0345 128.582 65.8865 128.736 64.3885 128.736H62.5265V125.054H64.3885ZM71.4269 123.85H69.9989V134H71.4269V123.85ZM76.407 130.15C76.407 132.992 77.485 135.218 78.339 136.45H79.389C78.451 134.938 77.723 132.824 77.723 130.15C77.723 127.476 78.451 125.348 79.389 123.85H78.339C77.485 125.082 76.407 127.308 76.407 130.15ZM82.1648 123.85H80.8908V134H82.1648V129.912C82.1648 128.274 82.9208 127.448 84.1528 127.448C85.6088 127.448 85.8048 128.456 85.8048 129.618V134H87.0788V129.24C87.0788 127.518 86.4208 126.342 84.6008 126.342C83.3268 126.342 82.5988 126.888 82.1648 127.602V123.85ZM89.3486 126.468H88.1586V127.49H89.3486V132.11C89.3486 133.678 89.6846 134 91.1266 134H92.0506V132.936H91.4066C90.6786 132.936 90.6226 132.74 90.6226 131.956V127.49H92.0506V126.468H90.6226V124.578H89.3486V126.468ZM93.9013 126.468H92.7113V127.49H93.9013V132.11C93.9013 133.678 94.2373 134 95.6793 134H96.6033V132.936H95.9593C95.2313 132.936 95.1753 132.74 95.1753 131.956V127.49H96.6033V126.468H95.1753V124.578H93.9013V126.468ZM98.09 126.468V136.45H99.364V132.866C99.826 133.664 100.61 134.182 101.828 134.182C103.564 134.182 105.048 132.768 105.048 130.262C105.048 127.798 103.564 126.342 101.828 126.342C100.61 126.342 99.826 126.86 99.364 127.658V126.468H98.09ZM99.308 130.262C99.308 128.274 100.372 127.434 101.506 127.434C102.808 127.434 103.662 128.428 103.662 130.262C103.662 132.096 102.808 133.09 101.506 133.09C100.372 133.09 99.308 132.25 99.308 130.262ZM112.181 128.666C111.943 127.224 110.879 126.328 109.213 126.328C107.547 126.328 106.203 127.098 106.203 128.428C106.203 129.842 107.323 130.29 108.345 130.514L109.465 130.738C110.277 130.92 110.991 131.2 110.991 131.984C110.991 132.698 110.207 133.104 109.241 133.104C108.121 133.104 107.533 132.53 107.323 131.564H105.979C106.133 132.88 107.253 134.182 109.213 134.182C110.935 134.182 112.279 133.342 112.279 131.844C112.279 130.402 111.075 129.856 109.703 129.604L108.639 129.394C107.911 129.24 107.491 128.974 107.491 128.372C107.491 127.7 108.331 127.42 109.073 127.42C109.969 127.42 110.641 127.77 110.851 128.666H112.181ZM113.66 134H114.346L113.604 135.946H114.416L115.27 134.112V132.39H113.66V134ZM124.782 125.6V130.29H121.156L124.782 125.6ZM127.932 130.29H126.07V123.85H124.768L119.742 130.29V131.494H124.782V134H126.07V131.494H127.932V130.29ZM133.518 125.6V130.29H129.892L133.518 125.6ZM136.668 130.29H134.806V123.85H133.504L128.478 130.29V131.494H133.518V134H134.806V131.494H136.668V130.29ZM140.925 133.118C139.483 133.118 138.769 132.25 138.615 131.004H137.299C137.453 132.698 138.503 134.182 140.911 134.182C142.857 134.182 144.579 133.188 144.579 131.144C144.579 130.066 144.159 129.086 142.647 128.596C143.711 128.162 144.299 127.294 144.299 126.244C144.299 124.382 142.759 123.668 141.009 123.668C138.881 123.668 137.607 124.914 137.453 126.706H138.769C138.881 125.544 139.623 124.732 140.981 124.732C142.059 124.732 142.955 125.306 142.955 126.384C142.955 127.574 142.045 128.064 140.253 128.064H140.085V129.226H140.295C141.919 129.226 143.221 129.702 143.221 131.158C143.221 132.432 142.269 133.118 140.925 133.118ZM146.467 134L150.471 123.85H149.183L145.193 134H146.467ZM151.843 126.468H150.653V127.49H151.843V132.11C151.843 133.678 152.179 134 153.621 134H154.545V132.936H153.901C153.173 132.936 153.117 132.74 153.117 131.956V127.49H154.545V126.468H153.117V124.578H151.843V126.468ZM159.085 126.342C156.845 126.342 155.445 128.008 155.445 130.248C155.445 132.544 156.789 134.182 158.959 134.182C160.723 134.182 162.053 132.964 162.319 131.55H161.003C160.821 132.334 160.079 133.062 159.001 133.062C157.881 133.062 156.831 132.138 156.831 130.234C156.831 128.344 157.881 127.462 159.001 127.462C159.995 127.462 160.765 128.092 160.947 128.988H162.235C162.053 127.7 160.919 126.342 159.085 126.342ZM163.756 126.468V136.45H165.03V132.866C165.492 133.664 166.276 134.182 167.494 134.182C169.23 134.182 170.714 132.768 170.714 130.262C170.714 127.798 169.23 126.342 167.494 126.342C166.276 126.342 165.492 126.86 165.03 127.658V126.468H163.756ZM164.974 130.262C164.974 128.274 166.038 127.434 167.172 127.434C168.474 127.434 169.328 128.428 169.328 130.262C169.328 132.096 168.474 133.09 167.172 133.09C166.038 133.09 164.974 132.25 164.974 130.262ZM174.179 130.15C174.179 127.308 173.101 125.082 172.247 123.85H171.197C172.135 125.348 172.863 127.504 172.863 130.15C172.863 132.824 172.135 134.938 171.197 136.45H172.247C173.101 135.218 174.179 132.992 174.179 130.15Z" fill="white"/>
<path d="M155.533 448H159.537C161.553 448 163.177 447.16 163.177 445.004C163.177 443.758 162.603 443.002 161.637 442.596C162.351 442.19 162.757 441.322 162.757 440.356C162.757 438.34 161.077 437.85 159.187 437.85H155.533V448ZM156.961 443.324H159.467C161.021 443.324 161.707 443.828 161.707 445.018C161.707 446.18 161.007 446.796 159.551 446.796H156.961V443.324ZM156.961 439.054H159.411C160.545 439.054 161.315 439.502 161.315 440.552C161.315 441.742 160.587 442.19 159.411 442.19H156.961V439.054ZM169.489 444.85C169.489 446.628 168.355 447.174 167.165 447.174C166.255 447.174 165.709 446.698 165.709 445.984C165.709 444.948 167.179 444.598 169.489 444.374V444.85ZM166.885 448.182C168.229 448.182 168.999 447.748 169.461 446.964C169.475 447.412 169.517 447.72 169.559 448H170.847C170.693 447.286 170.637 446.432 170.651 445.158L170.665 443.422C170.679 441.28 169.783 440.314 167.669 440.314C166.213 440.314 164.757 441.224 164.645 442.848H165.961C166.017 441.91 166.619 441.35 167.683 441.35C168.635 441.35 169.391 441.798 169.391 443.184V443.366C166.311 443.702 164.295 444.234 164.295 446.012C164.295 447.398 165.471 448.182 166.885 448.182ZM175.686 440.342C173.446 440.342 172.046 442.008 172.046 444.248C172.046 446.544 173.39 448.182 175.56 448.182C177.324 448.182 178.654 446.964 178.92 445.55H177.604C177.422 446.334 176.68 447.062 175.602 447.062C174.482 447.062 173.432 446.138 173.432 444.234C173.432 442.344 174.482 441.462 175.602 441.462C176.596 441.462 177.366 442.092 177.548 442.988H178.836C178.654 441.7 177.52 440.342 175.686 440.342ZM180.357 437.85V448H181.631V445.48L182.513 444.528L185.075 448H186.629L183.367 443.59L186.237 440.468H184.669L181.631 443.856V437.85H180.357ZM191.047 444.766V443.562H186.595V444.766H191.047ZM192.717 437.85V443.87C192.717 447.034 193.949 448.182 196.763 448.182C199.717 448.182 200.851 446.726 200.851 443.758V437.85H199.423V443.87C199.423 445.872 198.709 446.95 196.763 446.95C194.859 446.95 194.145 446.026 194.145 444.024V437.85H192.717ZM202.874 440.468V450.45H204.148V446.866C204.61 447.664 205.394 448.182 206.612 448.182C208.348 448.182 209.832 446.768 209.832 444.262C209.832 441.798 208.348 440.342 206.612 440.342C205.394 440.342 204.61 440.86 204.148 441.658V440.468H202.874ZM204.092 444.262C204.092 442.274 205.156 441.434 206.29 441.434C207.592 441.434 208.446 442.428 208.446 444.262C208.446 446.096 207.592 447.09 206.29 447.09C205.156 447.09 204.092 446.25 204.092 444.262ZM216.965 442.666C216.727 441.224 215.663 440.328 213.997 440.328C212.331 440.328 210.987 441.098 210.987 442.428C210.987 443.842 212.107 444.29 213.129 444.514L214.249 444.738C215.061 444.92 215.775 445.2 215.775 445.984C215.775 446.698 214.991 447.104 214.025 447.104C212.905 447.104 212.317 446.53 212.107 445.564H210.763C210.917 446.88 212.037 448.182 213.997 448.182C215.719 448.182 217.063 447.342 217.063 445.844C217.063 444.402 215.859 443.856 214.487 443.604L213.423 443.394C212.695 443.24 212.275 442.974 212.275 442.372C212.275 441.7 213.115 441.42 213.857 441.42C214.753 441.42 215.425 441.77 215.635 442.666H216.965Z" fill="white"/>
<path d="M301.691 432.918C301.691 430.3 303.133 428.872 304.995 428.872C306.843 428.872 308.299 430.3 308.299 432.918C308.299 435.536 306.843 436.978 304.995 436.978C303.133 436.978 301.691 435.536 301.691 432.918ZM309.755 432.918C309.755 429.852 307.907 427.668 304.995 427.668C302.083 427.668 300.235 429.852 300.235 432.918C300.235 435.984 302.083 438.182 304.995 438.182C307.907 438.182 309.755 435.984 309.755 432.918ZM311.188 430.44C311.188 432.12 312.574 432.904 313.974 433.212L315.234 433.478C316.508 433.772 317.418 434.192 317.418 435.27C317.418 436.278 316.564 436.978 315.052 436.978C313.47 436.978 312.518 436.25 312.252 434.85H310.852C311.118 436.866 312.63 438.182 315.024 438.182C317.04 438.182 318.888 437.118 318.888 435.144C318.888 433.1 317.026 432.512 315.472 432.176L314.296 431.91C313.344 431.7 312.644 431.252 312.644 430.356C312.644 429.222 314.016 428.872 314.8 428.872C315.808 428.872 316.984 429.278 317.32 430.44H318.706C318.3 428.494 316.69 427.668 314.856 427.668C313.218 427.668 311.188 428.494 311.188 430.44ZM320.294 430.44C320.294 432.12 321.68 432.904 323.08 433.212L324.34 433.478C325.614 433.772 326.524 434.192 326.524 435.27C326.524 436.278 325.67 436.978 324.158 436.978C322.576 436.978 321.624 436.25 321.358 434.85H319.958C320.224 436.866 321.736 438.182 324.13 438.182C326.146 438.182 327.994 437.118 327.994 435.144C327.994 433.1 326.132 432.512 324.578 432.176L323.402 431.91C322.45 431.7 321.75 431.252 321.75 430.356C321.75 429.222 323.122 428.872 323.906 428.872C324.914 428.872 326.09 429.278 326.426 430.44H327.812C327.406 428.494 325.796 427.668 323.962 427.668C322.324 427.668 320.294 428.494 320.294 430.44ZM277.96 455L280.76 446.152V455H282.188V444.85H279.794L277.204 453.306L274.614 444.85H272.22V455H273.648V446.152L276.448 455H277.96ZM289.143 451.85C289.143 453.628 288.009 454.174 286.819 454.174C285.909 454.174 285.363 453.698 285.363 452.984C285.363 451.948 286.833 451.598 289.143 451.374V451.85ZM286.539 455.182C287.883 455.182 288.653 454.748 289.115 453.964C289.129 454.412 289.171 454.72 289.213 455H290.501C290.347 454.286 290.291 453.432 290.305 452.158L290.319 450.422C290.333 448.28 289.437 447.314 287.323 447.314C285.867 447.314 284.411 448.224 284.299 449.848H285.615C285.671 448.91 286.273 448.35 287.337 448.35C288.289 448.35 289.045 448.798 289.045 450.184V450.366C285.965 450.702 283.949 451.234 283.949 453.012C283.949 454.398 285.125 455.182 286.539 455.182ZM293.491 447.468H292.217V455H293.491V450.912C293.491 449.274 294.247 448.448 295.479 448.448C296.935 448.448 297.131 449.456 297.131 450.618V455H298.405V450.24C298.405 448.518 297.747 447.342 295.927 447.342C294.653 447.342 293.925 447.888 293.491 448.602V447.468ZM305.057 451.85C305.057 453.628 303.923 454.174 302.733 454.174C301.823 454.174 301.277 453.698 301.277 452.984C301.277 451.948 302.747 451.598 305.057 451.374V451.85ZM302.453 455.182C303.797 455.182 304.567 454.748 305.029 453.964C305.043 454.412 305.085 454.72 305.127 455H306.415C306.261 454.286 306.205 453.432 306.219 452.158L306.233 450.422C306.247 448.28 305.351 447.314 303.237 447.314C301.781 447.314 300.325 448.224 300.213 449.848H301.529C301.585 448.91 302.187 448.35 303.251 448.35C304.203 448.35 304.959 448.798 304.959 450.184V450.366C301.879 450.702 299.863 451.234 299.863 453.012C299.863 454.398 301.039 455.182 302.453 455.182ZM313.199 448.658C312.737 447.86 312.023 447.342 310.805 447.342C309.139 447.342 307.613 448.7 307.613 451.108C307.613 453.53 309.139 454.874 310.805 454.874C312.023 454.874 312.737 454.37 313.199 453.572V454.286C313.199 455.336 312.975 455.658 312.709 455.952C312.359 456.33 311.855 456.512 311.169 456.512C309.993 456.512 309.573 455.994 309.419 455.322H308.061C308.299 456.876 309.419 457.632 311.155 457.632C312.275 457.632 313.213 457.268 313.759 456.638C314.193 456.162 314.473 455.518 314.473 453.992V447.468H313.199V448.658ZM313.255 451.108C313.255 453.012 312.247 453.796 311.127 453.796C309.881 453.796 308.999 452.858 308.999 451.108C308.999 449.372 309.881 448.434 311.127 448.434C312.247 448.434 313.255 449.204 313.255 451.108ZM323.135 451.654C323.289 449.26 321.931 447.342 319.621 447.342C317.563 447.342 315.967 448.854 315.967 451.248C315.967 453.474 317.283 455.182 319.663 455.182C321.497 455.182 322.701 454.104 323.037 452.816H321.721C321.399 453.558 320.783 454.062 319.663 454.062C318.557 454.062 317.381 453.278 317.339 451.654H323.135ZM319.621 448.434C320.979 448.434 321.749 449.498 321.791 450.562H317.353C317.465 449.05 318.501 448.434 319.621 448.434ZM325.893 450.912C325.893 449.274 326.607 448.448 327.713 448.448C329.099 448.448 329.323 449.456 329.323 450.618V455H330.597V450.912C330.597 449.274 331.311 448.448 332.417 448.448C333.803 448.448 334.027 449.456 334.027 450.618V455H335.301V450.24C335.301 448.518 334.615 447.342 332.865 447.342C331.801 447.342 330.933 447.734 330.331 448.672C329.995 447.832 329.323 447.342 328.161 447.342C327.027 447.342 326.327 447.888 325.893 448.602V447.468H324.619V455H325.893V450.912ZM343.861 451.654C344.015 449.26 342.657 447.342 340.347 447.342C338.289 447.342 336.693 448.854 336.693 451.248C336.693 453.474 338.009 455.182 340.389 455.182C342.223 455.182 343.427 454.104 343.763 452.816H342.447C342.125 453.558 341.509 454.062 340.389 454.062C339.283 454.062 338.107 453.278 338.065 451.654H343.861ZM340.347 448.434C341.705 448.434 342.475 449.498 342.517 450.562H338.079C338.191 449.05 339.227 448.434 340.347 448.434ZM346.62 447.468H345.346V455H346.62V450.912C346.62 449.274 347.376 448.448 348.608 448.448C350.064 448.448 350.26 449.456 350.26 450.618V455H351.534V450.24C351.534 448.518 350.876 447.342 349.056 447.342C347.782 447.342 347.054 447.888 346.62 448.602V447.468ZM353.804 447.468H352.614V448.49H353.804V453.11C353.804 454.678 354.14 455 355.582 455H356.506V453.936H355.862C355.134 453.936 355.078 453.74 355.078 452.956V448.49H356.506V447.468H355.078V445.578H353.804V447.468Z" fill="white"/>
<path d="M230.962 254.766C230.64 256.068 229.674 256.978 228.036 256.978C226.146 256.978 224.802 255.48 224.802 252.904C224.802 250.272 226.202 248.872 227.994 248.872C229.604 248.872 230.612 249.81 230.906 251.084H232.292C231.844 248.914 230.164 247.668 228.064 247.668C225.208 247.668 223.346 249.768 223.346 252.904C223.346 255.984 225.04 258.182 227.952 258.182C230.15 258.182 231.9 257.006 232.348 254.766H230.962ZM235.422 247.85H233.994V258H240.784V256.768H235.422V247.85ZM243.42 247.85H241.992V258H243.42V247.85ZM247.952 258H249.408L250.192 255.802H254.854L255.652 258H257.192L253.37 247.85H251.718L247.952 258ZM252.502 249.292L254.406 254.584H250.626L252.502 249.292ZM261.393 250.342C259.153 250.342 257.753 252.008 257.753 254.248C257.753 256.544 259.097 258.182 261.267 258.182C263.031 258.182 264.361 256.964 264.627 255.55H263.311C263.129 256.334 262.387 257.062 261.309 257.062C260.189 257.062 259.139 256.138 259.139 254.234C259.139 252.344 260.189 251.462 261.309 251.462C262.303 251.462 263.073 252.092 263.255 252.988H264.543C264.361 251.7 263.227 250.342 261.393 250.342ZM269.254 250.342C267.014 250.342 265.614 252.008 265.614 254.248C265.614 256.544 266.958 258.182 269.128 258.182C270.892 258.182 272.222 256.964 272.488 255.55H271.172C270.99 256.334 270.248 257.062 269.17 257.062C268.05 257.062 267 256.138 267 254.234C267 252.344 268.05 251.462 269.17 251.462C270.164 251.462 270.934 252.092 271.116 252.988H272.404C272.222 251.7 271.088 250.342 269.254 250.342ZM280.643 254.654C280.797 252.26 279.439 250.342 277.129 250.342C275.071 250.342 273.475 251.854 273.475 254.248C273.475 256.474 274.791 258.182 277.171 258.182C279.005 258.182 280.209 257.104 280.545 255.816H279.229C278.907 256.558 278.291 257.062 277.171 257.062C276.065 257.062 274.889 256.278 274.847 254.654H280.643ZM277.129 251.434C278.487 251.434 279.257 252.498 279.299 253.562H274.861C274.973 252.05 276.009 251.434 277.129 251.434ZM287.797 252.666C287.559 251.224 286.495 250.328 284.829 250.328C283.163 250.328 281.819 251.098 281.819 252.428C281.819 253.842 282.939 254.29 283.961 254.514L285.081 254.738C285.893 254.92 286.607 255.2 286.607 255.984C286.607 256.698 285.823 257.104 284.857 257.104C283.737 257.104 283.149 256.53 282.939 255.564H281.595C281.749 256.88 282.869 258.182 284.829 258.182C286.551 258.182 287.895 257.342 287.895 255.844C287.895 254.402 286.691 253.856 285.319 253.604L284.255 253.394C283.527 253.24 283.107 252.974 283.107 252.372C283.107 251.7 283.947 251.42 284.689 251.42C285.585 251.42 286.257 251.77 286.467 252.666H287.797ZM295.153 252.666C294.915 251.224 293.851 250.328 292.185 250.328C290.519 250.328 289.175 251.098 289.175 252.428C289.175 253.842 290.295 254.29 291.317 254.514L292.437 254.738C293.249 254.92 293.963 255.2 293.963 255.984C293.963 256.698 293.179 257.104 292.213 257.104C291.093 257.104 290.505 256.53 290.295 255.564H288.951C289.105 256.88 290.225 258.182 292.185 258.182C293.907 258.182 295.251 257.342 295.251 255.844C295.251 254.402 294.047 253.856 292.675 253.604L291.611 253.394C290.883 253.24 290.463 252.974 290.463 252.372C290.463 251.7 291.303 251.42 292.045 251.42C292.941 251.42 293.613 251.77 293.823 252.666H295.153ZM299.629 254.15C299.629 256.992 300.707 259.218 301.561 260.45H302.611C301.673 258.938 300.945 256.824 300.945 254.15C300.945 251.476 301.673 249.348 302.611 247.85H301.561C300.707 249.082 299.629 251.308 299.629 254.15ZM306.84 247.668C304.67 247.668 303.27 248.998 303.312 251.014H304.628C304.67 249.334 305.72 248.732 306.812 248.732C308.03 248.732 308.716 249.432 308.716 250.496C308.716 252.302 306.616 254.206 303.032 256.852V258H310.34V256.81H304.768C307.61 254.752 310.06 252.68 310.06 250.328C310.06 248.606 308.716 247.668 306.84 247.668ZM315.098 247.668C312.928 247.668 311.528 248.998 311.57 251.014H312.886C312.928 249.334 313.978 248.732 315.07 248.732C316.288 248.732 316.974 249.432 316.974 250.496C316.974 252.302 314.874 254.206 311.29 256.852V258H318.598V256.81H313.026C315.868 254.752 318.318 252.68 318.318 250.328C318.318 248.606 316.974 247.668 315.098 247.668ZM320.826 258L324.83 247.85H323.542L319.552 258H320.826ZM330.782 252.666C330.544 251.224 329.48 250.328 327.814 250.328C326.148 250.328 324.804 251.098 324.804 252.428C324.804 253.842 325.924 254.29 326.946 254.514L328.066 254.738C328.878 254.92 329.592 255.2 329.592 255.984C329.592 256.698 328.808 257.104 327.842 257.104C326.722 257.104 326.134 256.53 325.924 255.564H324.58C324.734 256.88 325.854 258.182 327.814 258.182C329.536 258.182 330.88 257.342 330.88 255.844C330.88 254.402 329.676 253.856 328.304 253.604L327.24 253.394C326.512 253.24 326.092 252.974 326.092 252.372C326.092 251.7 326.932 251.42 327.674 251.42C328.57 251.42 329.242 251.77 329.452 252.666H330.782ZM338.137 252.666C337.899 251.224 336.835 250.328 335.169 250.328C333.503 250.328 332.159 251.098 332.159 252.428C332.159 253.842 333.279 254.29 334.301 254.514L335.421 254.738C336.233 254.92 336.947 255.2 336.947 255.984C336.947 256.698 336.163 257.104 335.197 257.104C334.077 257.104 333.489 256.53 333.279 255.564H331.935C332.089 256.88 333.209 258.182 335.169 258.182C336.891 258.182 338.235 257.342 338.235 255.844C338.235 254.402 337.031 253.856 335.659 253.604L334.595 253.394C333.867 253.24 333.447 252.974 333.447 252.372C333.447 251.7 334.287 251.42 335.029 251.42C335.925 251.42 336.597 251.77 336.807 252.666H338.137ZM341.125 247.85H339.851V258H341.125V253.912C341.125 252.274 341.881 251.448 343.113 251.448C344.569 251.448 344.765 252.456 344.765 253.618V258H346.039V253.24C346.039 251.518 345.381 250.342 343.561 250.342C342.287 250.342 341.559 250.888 341.125 251.602V247.85ZM349.919 254.15C349.919 251.308 348.841 249.082 347.987 247.85H346.937C347.875 249.348 348.603 251.504 348.603 254.15C348.603 256.824 347.875 258.938 346.937 260.45H347.987C348.841 259.218 349.919 256.992 349.919 254.15Z" fill="white"/>
<path d="M276.771 324.912C276.771 323.274 277.485 322.448 278.591 322.448C279.977 322.448 280.201 323.456 280.201 324.618V329H281.475V324.912C281.475 323.274 282.189 322.448 283.295 322.448C284.681 322.448 284.905 323.456 284.905 324.618V329H286.179V324.24C286.179 322.518 285.493 321.342 283.743 321.342C282.679 321.342 281.811 321.734 281.209 322.672C280.873 321.832 280.201 321.342 279.039 321.342C277.905 321.342 277.205 321.888 276.771 322.602V321.468H275.497V329H276.771V324.912ZM288.957 325.262C288.957 323.204 290.049 322.462 291.211 322.462C292.373 322.462 293.465 323.246 293.465 325.262C293.465 327.194 292.373 328.062 291.211 328.062C290.049 328.062 288.957 327.278 288.957 325.262ZM291.211 321.342C289.461 321.342 287.599 322.532 287.599 325.262C287.599 327.992 289.461 329.182 291.211 329.182C292.961 329.182 294.823 327.992 294.823 325.262C294.823 322.532 292.961 321.342 291.211 321.342ZM297.621 321.468H296.347V329H297.621V324.912C297.621 323.274 298.377 322.448 299.609 322.448C301.065 322.448 301.261 323.456 301.261 324.618V329H302.535V324.24C302.535 322.518 301.877 321.342 300.057 321.342C298.783 321.342 298.055 321.888 297.621 322.602V321.468ZM304.441 321.468V329H305.715V321.468H304.441ZM304.441 318.85V320.39H305.715V318.85H304.441ZM308.1 321.468H306.91V322.49H308.1V327.11C308.1 328.678 308.436 329 309.878 329H310.802V327.936H310.158C309.43 327.936 309.374 327.74 309.374 326.956V322.49H310.802V321.468H309.374V319.578H308.1V321.468ZM313.088 325.262C313.088 323.204 314.18 322.462 315.342 322.462C316.504 322.462 317.596 323.246 317.596 325.262C317.596 327.194 316.504 328.062 315.342 328.062C314.18 328.062 313.088 327.278 313.088 325.262ZM315.342 321.342C313.592 321.342 311.73 322.532 311.73 325.262C311.73 327.992 313.592 329.182 315.342 329.182C317.092 329.182 318.954 327.992 318.954 325.262C318.954 322.532 317.092 321.342 315.342 321.342ZM324.23 321.44C324.076 321.426 323.978 321.426 323.852 321.426C322.858 321.468 322.102 321.93 321.724 322.784V321.468H320.478V329H321.752V325.052C321.752 323.372 322.34 322.742 323.516 322.742C323.726 322.742 323.964 322.756 324.23 322.798V321.44ZM325.454 321.468V329H326.728V321.468H325.454ZM325.454 318.85V320.39H326.728V318.85H325.454ZM330.023 321.468H328.749V329H330.023V324.912C330.023 323.274 330.779 322.448 332.011 322.448C333.467 322.448 333.663 323.456 333.663 324.618V329H334.937V324.24C334.937 322.518 334.279 321.342 332.459 321.342C331.185 321.342 330.457 321.888 330.023 322.602V321.468ZM341.911 322.658C341.449 321.86 340.735 321.342 339.517 321.342C337.851 321.342 336.325 322.7 336.325 325.108C336.325 327.53 337.851 328.874 339.517 328.874C340.735 328.874 341.449 328.37 341.911 327.572V328.286C341.911 329.336 341.687 329.658 341.421 329.952C341.071 330.33 340.567 330.512 339.881 330.512C338.705 330.512 338.285 329.994 338.131 329.322H336.773C337.011 330.876 338.131 331.632 339.867 331.632C340.987 331.632 341.925 331.268 342.471 330.638C342.905 330.162 343.185 329.518 343.185 327.992V321.468H341.911V322.658ZM341.967 325.108C341.967 327.012 340.959 327.796 339.839 327.796C338.593 327.796 337.711 326.858 337.711 325.108C337.711 323.372 338.593 322.434 339.839 322.434C340.959 322.434 341.967 323.204 341.967 325.108ZM291.917 346V342.836H295.081V341.632H291.917V338.552H290.643V341.632H287.479V342.836H290.643V346H291.917ZM305.092 342.85C305.092 344.628 303.958 345.174 302.768 345.174C301.858 345.174 301.312 344.698 301.312 343.984C301.312 342.948 302.782 342.598 305.092 342.374V342.85ZM302.488 346.182C303.832 346.182 304.602 345.748 305.064 344.964C305.078 345.412 305.12 345.72 305.162 346H306.45C306.296 345.286 306.24 344.432 306.254 343.158L306.268 341.422C306.282 339.28 305.386 338.314 303.272 338.314C301.816 338.314 300.36 339.224 300.248 340.848H301.564C301.62 339.91 302.222 339.35 303.286 339.35C304.238 339.35 304.994 339.798 304.994 341.184V341.366C301.914 341.702 299.898 342.234 299.898 344.012C299.898 345.398 301.074 346.182 302.488 346.182ZM309.44 335.85H308.166V346H309.44V335.85ZM318.111 342.654C318.265 340.26 316.907 338.342 314.597 338.342C312.539 338.342 310.943 339.854 310.943 342.248C310.943 344.474 312.259 346.182 314.639 346.182C316.473 346.182 317.677 345.104 318.013 343.816H316.697C316.375 344.558 315.759 345.062 314.639 345.062C313.533 345.062 312.357 344.278 312.315 342.654H318.111ZM314.597 339.434C315.955 339.434 316.725 340.498 316.767 341.562H312.329C312.441 340.05 313.477 339.434 314.597 339.434ZM323.348 338.44C323.194 338.426 323.096 338.426 322.97 338.426C321.976 338.468 321.22 338.93 320.842 339.784V338.468H319.596V346H320.87V342.052C320.87 340.372 321.458 339.742 322.634 339.742C322.844 339.742 323.082 339.756 323.348 339.798V338.44ZM324.936 338.468H323.746V339.49H324.936V344.11C324.936 345.678 325.272 346 326.714 346H327.638V344.936H326.994C326.266 344.936 326.21 344.74 326.21 343.956V339.49H327.638V338.468H326.21V336.578H324.936V338.468ZM334.767 340.666C334.529 339.224 333.465 338.328 331.799 338.328C330.133 338.328 328.789 339.098 328.789 340.428C328.789 341.842 329.909 342.29 330.931 342.514L332.051 342.738C332.863 342.92 333.577 343.2 333.577 343.984C333.577 344.698 332.793 345.104 331.827 345.104C330.707 345.104 330.119 344.53 329.909 343.564H328.565C328.719 344.88 329.839 346.182 331.799 346.182C333.521 346.182 334.865 345.342 334.865 343.844C334.865 342.402 333.661 341.856 332.289 341.604L331.225 341.394C330.497 341.24 330.077 340.974 330.077 340.372C330.077 339.7 330.917 339.42 331.659 339.42C332.555 339.42 333.227 339.77 333.437 340.666H334.767Z" fill="white"/>
<path d="M141.714 332.262C141.714 330.274 142.778 329.434 143.912 329.434C145.214 329.434 146.068 330.428 146.068 332.262C146.068 334.096 145.214 335.09 143.912 335.09C142.778 335.09 141.714 334.25 141.714 332.262ZM140.496 325.85V336H141.77V334.866C142.232 335.664 143.016 336.182 144.234 336.182C145.97 336.182 147.454 334.768 147.454 332.262C147.454 329.798 145.97 328.342 144.234 328.342C143.016 328.342 142.232 328.86 141.77 329.658V325.85H140.496ZM153.65 332.85C153.65 334.628 152.516 335.174 151.326 335.174C150.416 335.174 149.87 334.698 149.87 333.984C149.87 332.948 151.34 332.598 153.65 332.374V332.85ZM151.046 336.182C152.39 336.182 153.16 335.748 153.622 334.964C153.636 335.412 153.678 335.72 153.72 336H155.008C154.854 335.286 154.798 334.432 154.812 333.158L154.826 331.422C154.84 329.28 153.944 328.314 151.83 328.314C150.374 328.314 148.918 329.224 148.806 330.848H150.122C150.178 329.91 150.78 329.35 151.844 329.35C152.796 329.35 153.552 329.798 153.552 331.184V331.366C150.472 331.702 148.456 332.234 148.456 334.012C148.456 335.398 149.632 336.182 151.046 336.182ZM159.847 328.342C157.607 328.342 156.207 330.008 156.207 332.248C156.207 334.544 157.551 336.182 159.721 336.182C161.485 336.182 162.815 334.964 163.081 333.55H161.765C161.583 334.334 160.841 335.062 159.763 335.062C158.643 335.062 157.593 334.138 157.593 332.234C157.593 330.344 158.643 329.462 159.763 329.462C160.757 329.462 161.527 330.092 161.709 330.988H162.997C162.815 329.7 161.681 328.342 159.847 328.342ZM164.518 325.85V336H165.792V333.48L166.674 332.528L169.236 336H170.79L167.528 331.59L170.398 328.468H168.83L165.792 331.856V325.85H164.518ZM175.208 332.766V331.562H170.756V332.766H175.208ZM181.498 336H182.772V328.468H181.498V332.612C181.498 334.25 180.798 335.076 179.58 335.076C178.18 335.076 177.998 334.068 177.998 332.906V328.468H176.724V333.284C176.724 335.006 177.396 336.182 179.132 336.182C180.378 336.182 181.064 335.636 181.498 334.922V336ZM184.793 328.468V338.45H186.067V334.866C186.529 335.664 187.313 336.182 188.531 336.182C190.267 336.182 191.751 334.768 191.751 332.262C191.751 329.798 190.267 328.342 188.531 328.342C187.313 328.342 186.529 328.86 186.067 329.658V328.468H184.793ZM186.011 332.262C186.011 330.274 187.075 329.434 188.209 329.434C189.511 329.434 190.365 330.428 190.365 332.262C190.365 334.096 189.511 335.09 188.209 335.09C187.075 335.09 186.011 334.25 186.011 332.262ZM201.311 332.85C201.311 334.628 200.177 335.174 198.987 335.174C198.077 335.174 197.531 334.698 197.531 333.984C197.531 332.948 199.001 332.598 201.311 332.374V332.85ZM198.707 336.182C200.051 336.182 200.821 335.748 201.283 334.964C201.297 335.412 201.339 335.72 201.381 336H202.669C202.515 335.286 202.459 334.432 202.473 333.158L202.487 331.422C202.501 329.28 201.605 328.314 199.491 328.314C198.035 328.314 196.579 329.224 196.467 330.848H197.783C197.839 329.91 198.441 329.35 199.505 329.35C200.457 329.35 201.213 329.798 201.213 331.184V331.366C198.133 331.702 196.117 332.234 196.117 334.012C196.117 335.398 197.293 336.182 198.707 336.182ZM209.453 329.658C208.991 328.86 208.277 328.342 207.059 328.342C205.393 328.342 203.867 329.7 203.867 332.108C203.867 334.53 205.393 335.874 207.059 335.874C208.277 335.874 208.991 335.37 209.453 334.572V335.286C209.453 336.336 209.229 336.658 208.963 336.952C208.613 337.33 208.109 337.512 207.423 337.512C206.247 337.512 205.827 336.994 205.673 336.322H204.315C204.553 337.876 205.673 338.632 207.409 338.632C208.529 338.632 209.467 338.268 210.013 337.638C210.447 337.162 210.727 336.518 210.727 334.992V328.468H209.453V329.658ZM209.509 332.108C209.509 334.012 208.501 334.796 207.381 334.796C206.135 334.796 205.253 333.858 205.253 332.108C205.253 330.372 206.135 329.434 207.381 329.434C208.501 329.434 209.509 330.204 209.509 332.108ZM219.388 332.654C219.542 330.26 218.184 328.342 215.874 328.342C213.816 328.342 212.22 329.854 212.22 332.248C212.22 334.474 213.536 336.182 215.916 336.182C217.75 336.182 218.954 335.104 219.29 333.816H217.974C217.652 334.558 217.036 335.062 215.916 335.062C214.81 335.062 213.634 334.278 213.592 332.654H219.388ZM215.874 329.434C217.232 329.434 218.002 330.498 218.044 331.562H213.606C213.718 330.05 214.754 329.434 215.874 329.434ZM222.147 328.468H220.873V336H222.147V331.912C222.147 330.274 222.903 329.448 224.135 329.448C225.591 329.448 225.787 330.456 225.787 331.618V336H227.061V331.24C227.061 329.518 226.403 328.342 224.583 328.342C223.309 328.342 222.581 328.888 222.147 329.602V328.468ZM229.331 328.468H228.141V329.49H229.331V334.11C229.331 335.678 229.667 336 231.109 336H232.033V334.936H231.389C230.661 334.936 230.605 334.74 230.605 333.956V329.49H232.033V328.468H230.605V326.578H229.331V328.468Z" fill="white"/>
<path d="M14.1873 318.85H12.9133V329H14.1873V318.85ZM17.0762 325.262C17.0762 323.204 18.1682 322.462 19.3302 322.462C20.4922 322.462 21.5842 323.246 21.5842 325.262C21.5842 327.194 20.4922 328.062 19.3302 328.062C18.1682 328.062 17.0762 327.278 17.0762 325.262ZM19.3302 321.342C17.5802 321.342 15.7182 322.532 15.7182 325.262C15.7182 327.992 17.5802 329.182 19.3302 329.182C21.0802 329.182 22.9422 327.992 22.9422 325.262C22.9422 322.532 21.0802 321.342 19.3302 321.342ZM29.6434 322.658C29.1814 321.86 28.4674 321.342 27.2494 321.342C25.5834 321.342 24.0574 322.7 24.0574 325.108C24.0574 327.53 25.5834 328.874 27.2494 328.874C28.4674 328.874 29.1814 328.37 29.6434 327.572V328.286C29.6434 329.336 29.4194 329.658 29.1534 329.952C28.8034 330.33 28.2994 330.512 27.6134 330.512C26.4374 330.512 26.0174 329.994 25.8634 329.322H24.5054C24.7434 330.876 25.8634 331.632 27.5994 331.632C28.7194 331.632 29.6574 331.268 30.2034 330.638C30.6374 330.162 30.9174 329.518 30.9174 327.992V321.468H29.6434V322.658ZM29.6994 325.108C29.6994 327.012 28.6914 327.796 27.5714 327.796C26.3254 327.796 25.4434 326.858 25.4434 325.108C25.4434 323.372 26.3254 322.434 27.5714 322.434C28.6914 322.434 29.6994 323.204 29.6994 325.108ZM39.3732 321.342C37.1332 321.342 35.7332 323.008 35.7332 325.248C35.7332 327.544 37.0772 329.182 39.2472 329.182C41.0112 329.182 42.3412 327.964 42.6072 326.55H41.2912C41.1092 327.334 40.3672 328.062 39.2892 328.062C38.1692 328.062 37.1192 327.138 37.1192 325.234C37.1192 323.344 38.1692 322.462 39.2892 322.462C40.2832 322.462 41.0532 323.092 41.2352 323.988H42.5232C42.3412 322.7 41.2072 321.342 39.3732 321.342ZM44.9805 325.262C44.9805 323.204 46.0725 322.462 47.2345 322.462C48.3965 322.462 49.4885 323.246 49.4885 325.262C49.4885 327.194 48.3965 328.062 47.2345 328.062C46.0725 328.062 44.9805 327.278 44.9805 325.262ZM47.2345 321.342C45.4845 321.342 43.6225 322.532 43.6225 325.262C43.6225 327.992 45.4845 329.182 47.2345 329.182C48.9845 329.182 50.8465 327.992 50.8465 325.262C50.8465 322.532 48.9845 321.342 47.2345 321.342ZM53.6443 318.85H52.3703V329H53.6443V318.85ZM56.9392 318.85H55.6652V329H56.9392V318.85ZM65.6101 325.654C65.7641 323.26 64.4061 321.342 62.0961 321.342C60.0381 321.342 58.4421 322.854 58.4421 325.248C58.4421 327.474 59.7581 329.182 62.1381 329.182C63.9721 329.182 65.1761 328.104 65.5121 326.816H64.1961C63.8741 327.558 63.2581 328.062 62.1381 328.062C61.0321 328.062 59.8561 327.278 59.8141 325.654H65.6101ZM62.0961 322.434C63.4541 322.434 64.2241 323.498 64.2661 324.562H59.8281C59.9401 323.05 60.9761 322.434 62.0961 322.434ZM70.2853 321.342C68.0453 321.342 66.6453 323.008 66.6453 325.248C66.6453 327.544 67.9893 329.182 70.1593 329.182C71.9233 329.182 73.2533 327.964 73.5193 326.55H72.2033C72.0213 327.334 71.2793 328.062 70.2013 328.062C69.0813 328.062 68.0313 327.138 68.0313 325.234C68.0313 323.344 69.0813 322.462 70.2013 322.462C71.1953 322.462 71.9653 323.092 72.1473 323.988H73.4353C73.2533 322.7 72.1193 321.342 70.2853 321.342ZM75.3202 321.468H74.1302V322.49H75.3202V327.11C75.3202 328.678 75.6562 329 77.0982 329H78.0222V327.936H77.3782C76.6502 327.936 76.5942 327.74 76.5942 326.956V322.49H78.0222V321.468H76.5942V319.578H75.3202V321.468ZM79.6457 321.468V329H80.9197V321.468H79.6457ZM79.6457 318.85V320.39H80.9197V318.85H79.6457ZM83.8086 325.262C83.8086 323.204 84.9006 322.462 86.0626 322.462C87.2246 322.462 88.3166 323.246 88.3166 325.262C88.3166 327.194 87.2246 328.062 86.0626 328.062C84.9006 328.062 83.8086 327.278 83.8086 325.262ZM86.0626 321.342C84.3126 321.342 82.4506 322.532 82.4506 325.262C82.4506 327.992 84.3126 329.182 86.0626 329.182C87.8126 329.182 89.6746 327.992 89.6746 325.262C89.6746 322.532 87.8126 321.342 86.0626 321.342ZM92.4724 321.468H91.1984V329H92.4724V324.912C92.4724 323.274 93.2284 322.448 94.4604 322.448C95.9164 322.448 96.1124 323.456 96.1124 324.618V329H97.3864V324.24C97.3864 322.518 96.7284 321.342 94.9084 321.342C93.6344 321.342 92.9064 321.888 92.4724 322.602V321.468ZM106.996 329V325.836H110.16V324.632H106.996V321.552H105.722V324.632H102.558V325.836H105.722V329H106.996ZM28.7597 338.468H27.7097V339.49H28.7597V346H30.0337V339.49H31.4477V338.468H30.0337V337.852C30.0337 337.068 30.1457 336.914 30.8177 336.914H31.4477V335.85H30.7897C29.0677 335.85 28.7597 336.354 28.7597 337.922V338.468ZM33.4209 342.262C33.4209 340.204 34.5129 339.462 35.6749 339.462C36.8369 339.462 37.9289 340.246 37.9289 342.262C37.9289 344.194 36.8369 345.062 35.6749 345.062C34.5129 345.062 33.4209 344.278 33.4209 342.262ZM35.6749 338.342C33.9249 338.342 32.0629 339.532 32.0629 342.262C32.0629 344.992 33.9249 346.182 35.6749 346.182C37.4249 346.182 39.2869 344.992 39.2869 342.262C39.2869 339.532 37.4249 338.342 35.6749 338.342ZM44.5627 338.44C44.4087 338.426 44.3107 338.426 44.1847 338.426C43.1907 338.468 42.4347 338.93 42.0567 339.784V338.468H40.8107V346H42.0847V342.052C42.0847 340.372 42.6727 339.742 43.8487 339.742C44.0587 339.742 44.2967 339.756 44.5627 339.798V338.44ZM47.6633 344.04L46.2213 338.468H44.8493L47.0193 346H48.1813L49.7913 339.938L51.4573 346H52.6193L54.7893 338.468H53.4173L51.9753 344.04L50.4773 338.468H49.1613L47.6633 344.04ZM60.4728 342.85C60.4728 344.628 59.3388 345.174 58.1488 345.174C57.2388 345.174 56.6928 344.698 56.6928 343.984C56.6928 342.948 58.1628 342.598 60.4728 342.374V342.85ZM57.8688 346.182C59.2128 346.182 59.9828 345.748 60.4448 344.964C60.4588 345.412 60.5008 345.72 60.5428 346H61.8308C61.6768 345.286 61.6208 344.432 61.6348 343.158L61.6488 341.422C61.6628 339.28 60.7668 338.314 58.6528 338.314C57.1968 338.314 55.7408 339.224 55.6288 340.848H56.9448C57.0008 339.91 57.6028 339.35 58.6668 339.35C59.6188 339.35 60.3748 339.798 60.3748 341.184V341.366C57.2948 341.702 55.2788 342.234 55.2788 344.012C55.2788 345.398 56.4548 346.182 57.8688 346.182ZM67.2991 338.44C67.1451 338.426 67.0471 338.426 66.9211 338.426C65.9271 338.468 65.1711 338.93 64.7931 339.784V338.468H63.5471V346H64.8211V342.052C64.8211 340.372 65.4091 339.742 66.5851 339.742C66.7951 339.742 67.0331 339.756 67.2991 339.798V338.44ZM73.5529 339.658C73.0909 338.86 72.3069 338.342 71.0889 338.342C69.3529 338.342 67.8689 339.798 67.8689 342.262C67.8689 344.768 69.3529 346.182 71.0889 346.182C72.3069 346.182 73.0909 345.664 73.5529 344.866V346H74.8269V335.85H73.5529V339.658ZM73.6089 342.262C73.6089 344.25 72.5449 345.09 71.4109 345.09C70.1089 345.09 69.2549 344.096 69.2549 342.262C69.2549 340.428 70.1089 339.434 71.4109 339.434C72.5449 339.434 73.6089 340.274 73.6089 342.262ZM76.8361 338.468V346H78.1101V338.468H76.8361ZM76.8361 335.85V337.39H78.1101V335.85H76.8361ZM81.405 338.468H80.131V346H81.405V341.912C81.405 340.274 82.161 339.448 83.393 339.448C84.849 339.448 85.045 340.456 85.045 341.618V346H86.319V341.24C86.319 339.518 85.661 338.342 83.841 338.342C82.567 338.342 81.839 338.888 81.405 339.602V338.468ZM93.2928 339.658C92.8308 338.86 92.1168 338.342 90.8988 338.342C89.2328 338.342 87.7068 339.7 87.7068 342.108C87.7068 344.53 89.2328 345.874 90.8988 345.874C92.1168 345.874 92.8308 345.37 93.2928 344.572V345.286C93.2928 346.336 93.0688 346.658 92.8028 346.952C92.4528 347.33 91.9488 347.512 91.2628 347.512C90.0868 347.512 89.6668 346.994 89.5128 346.322H88.1548C88.3928 347.876 89.5128 348.632 91.2488 348.632C92.3688 348.632 93.3068 348.268 93.8528 347.638C94.2868 347.162 94.5668 346.518 94.5668 344.992V338.468H93.2928V339.658ZM93.3488 342.108C93.3488 344.012 92.3408 344.796 91.2208 344.796C89.9748 344.796 89.0928 343.858 89.0928 342.108C89.0928 340.372 89.9748 339.434 91.2208 339.434C92.3408 339.434 93.3488 340.204 93.3488 342.108Z" fill="white"/>
<path d="M42.3992 440.44C42.3992 442.12 43.7852 442.904 45.1852 443.212L46.4452 443.478C47.7192 443.772 48.6292 444.192 48.6292 445.27C48.6292 446.278 47.7752 446.978 46.2632 446.978C44.6812 446.978 43.7292 446.25 43.4632 444.85H42.0632C42.3292 446.866 43.8412 448.182 46.2352 448.182C48.2512 448.182 50.0992 447.118 50.0992 445.144C50.0992 443.1 48.2372 442.512 46.6832 442.176L45.5072 441.91C44.5552 441.7 43.8552 441.252 43.8552 440.356C43.8552 439.222 45.2272 438.872 46.0112 438.872C47.0192 438.872 48.1952 439.278 48.5312 440.44H49.9172C49.5112 438.494 47.9012 437.668 46.0672 437.668C44.4292 437.668 42.3992 438.494 42.3992 440.44ZM53.216 437.85H51.788V448H53.216V437.85ZM55.6298 448H62.5178V446.768H57.0578V443.394H62.1958V442.162H57.0578V439.082H62.5178V437.85H55.6298V448ZM69.9557 448L72.7557 439.152V448H74.1837V437.85H71.7897L69.1997 446.306L66.6097 437.85H64.2157V448H65.6437V439.152L68.4437 448H69.9557Z" fill="white"/>
<path d="M222.008 123.668C219.152 123.668 217.29 125.768 217.29 128.904C217.29 131.984 218.97 134.182 221.882 134.182C223.24 134.182 224.43 133.776 225.088 132.726L225.158 134H226.278V128.82H222.246V130.052H224.934V130.318C224.934 132.418 223.282 132.978 221.938 132.978C220.076 132.978 218.746 131.48 218.746 128.904C218.746 126.272 220.146 124.872 221.938 124.872C223.576 124.872 224.486 125.67 224.822 126.804H226.208C225.788 124.844 224.108 123.668 222.008 123.668ZM228.4 123.85V129.87C228.4 133.034 229.632 134.182 232.446 134.182C235.4 134.182 236.534 132.726 236.534 129.758V123.85H235.106V129.87C235.106 131.872 234.392 132.95 232.446 132.95C230.542 132.95 229.828 132.026 229.828 130.024V123.85H228.4ZM240.222 123.85H238.794V134H240.222V123.85ZM245.202 130.15C245.202 132.992 246.28 135.218 247.134 136.45H248.184C247.246 134.938 246.518 132.824 246.518 130.15C246.518 127.476 247.246 125.348 248.184 123.85H247.134C246.28 125.082 245.202 127.308 245.202 130.15ZM250.96 123.85H249.686V134H250.96V129.912C250.96 128.274 251.716 127.448 252.948 127.448C254.404 127.448 254.6 128.456 254.6 129.618V134H255.874V129.24C255.874 127.518 255.216 126.342 253.396 126.342C252.122 126.342 251.394 126.888 250.96 127.602V123.85ZM258.143 126.468H256.953V127.49H258.143V132.11C258.143 133.678 258.479 134 259.921 134H260.845V132.936H260.201C259.473 132.936 259.417 132.74 259.417 131.956V127.49H260.845V126.468H259.417V124.578H258.143V126.468ZM262.696 126.468H261.506V127.49H262.696V132.11C262.696 133.678 263.032 134 264.474 134H265.398V132.936H264.754C264.026 132.936 263.97 132.74 263.97 131.956V127.49H265.398V126.468H263.97V124.578H262.696V126.468ZM266.885 126.468V136.45H268.159V132.866C268.621 133.664 269.405 134.182 270.623 134.182C272.359 134.182 273.843 132.768 273.843 130.262C273.843 127.798 272.359 126.342 270.623 126.342C269.405 126.342 268.621 126.86 268.159 127.658V126.468H266.885ZM268.103 130.262C268.103 128.274 269.167 127.434 270.301 127.434C271.603 127.434 272.457 128.428 272.457 130.262C272.457 132.096 271.603 133.09 270.301 133.09C269.167 133.09 268.103 132.25 268.103 130.262ZM280.976 128.666C280.738 127.224 279.674 126.328 278.008 126.328C276.342 126.328 274.998 127.098 274.998 128.428C274.998 129.842 276.118 130.29 277.14 130.514L278.26 130.738C279.072 130.92 279.786 131.2 279.786 131.984C279.786 132.698 279.002 133.104 278.036 133.104C276.916 133.104 276.328 132.53 276.118 131.564H274.774C274.928 132.88 276.048 134.182 278.008 134.182C279.73 134.182 281.074 133.342 281.074 131.844C281.074 130.402 279.87 129.856 278.498 129.604L277.434 129.394C276.706 129.24 276.286 128.974 276.286 128.372C276.286 127.7 277.126 127.42 277.868 127.42C278.764 127.42 279.436 127.77 279.646 128.666H280.976ZM282.455 134H283.141L282.399 135.946H283.211L284.065 134.112V132.39H282.455V134ZM293.577 125.6V130.29H289.951L293.577 125.6ZM296.727 130.29H294.865V123.85H293.563L288.537 130.29V131.494H293.577V134H294.865V131.494H296.727V130.29ZM302.313 125.6V130.29H298.687L302.313 125.6ZM305.463 130.29H303.601V123.85H302.299L297.273 130.29V131.494H302.313V134H303.601V131.494H305.463V130.29ZM309.719 133.118C308.277 133.118 307.563 132.25 307.409 131.004H306.093C306.247 132.698 307.297 134.182 309.705 134.182C311.651 134.182 313.373 133.188 313.373 131.144C313.373 130.066 312.953 129.086 311.441 128.596C312.505 128.162 313.093 127.294 313.093 126.244C313.093 124.382 311.553 123.668 309.803 123.668C307.675 123.668 306.401 124.914 306.247 126.706H307.563C307.675 125.544 308.417 124.732 309.775 124.732C310.853 124.732 311.749 125.306 311.749 126.384C311.749 127.574 310.839 128.064 309.047 128.064H308.879V129.226H309.089C310.713 129.226 312.015 129.702 312.015 131.158C312.015 132.432 311.063 133.118 309.719 133.118ZM315.262 134L319.266 123.85H317.978L313.988 134H315.262ZM320.638 126.468H319.448V127.49H320.638V132.11C320.638 133.678 320.974 134 322.416 134H323.34V132.936H322.696C321.968 132.936 321.912 132.74 321.912 131.956V127.49H323.34V126.468H321.912V124.578H320.638V126.468ZM327.88 126.342C325.64 126.342 324.24 128.008 324.24 130.248C324.24 132.544 325.584 134.182 327.754 134.182C329.518 134.182 330.848 132.964 331.114 131.55H329.798C329.616 132.334 328.874 133.062 327.796 133.062C326.676 133.062 325.626 132.138 325.626 130.234C325.626 128.344 326.676 127.462 327.796 127.462C328.79 127.462 329.56 128.092 329.742 128.988H331.03C330.848 127.7 329.714 126.342 327.88 126.342ZM332.551 126.468V136.45H333.825V132.866C334.287 133.664 335.071 134.182 336.289 134.182C338.025 134.182 339.509 132.768 339.509 130.262C339.509 127.798 338.025 126.342 336.289 126.342C335.071 126.342 334.287 126.86 333.825 127.658V126.468H332.551ZM333.769 130.262C333.769 128.274 334.833 127.434 335.967 127.434C337.269 127.434 338.123 128.428 338.123 130.262C338.123 132.096 337.269 133.09 335.967 133.09C334.833 133.09 333.769 132.25 333.769 130.262ZM342.974 130.15C342.974 127.308 341.896 125.082 341.042 123.85H339.992C340.93 125.348 341.658 127.504 341.658 130.15C341.658 132.824 340.93 134.938 339.992 136.45H341.042C341.896 135.218 342.974 132.992 342.974 130.15Z" fill="white"/>
<path d="M79.877 101H82.925V93.32H91.493V90.8H82.925V86.144H92.021V83.6H79.877V101ZM101.623 101H104.479V88.088H101.623V94.976C101.623 97.304 100.855 98.984 98.7189 98.984C96.5829 98.984 96.3429 97.256 96.3429 95.528V88.088H93.4869V96.224C93.4869 99.296 94.7349 101.312 97.8069 101.312C99.5589 101.312 100.879 100.568 101.623 99.224V101ZM117.75 91.616C117.222 89.024 114.918 87.8 112.398 87.8C109.614 87.8 107.142 89.264 107.142 91.544C107.142 93.92 108.846 94.856 111.03 95.312L112.974 95.696C114.246 95.96 115.206 96.416 115.206 97.472C115.206 98.528 114.126 99.152 112.614 99.152C110.91 99.152 109.974 98.408 109.71 97.064H106.926C107.238 99.488 109.35 101.312 112.518 101.312C115.446 101.312 117.99 99.824 117.99 97.136C117.99 94.616 115.998 93.8 113.382 93.296L111.558 92.936C110.43 92.72 109.83 92.264 109.83 91.4C109.83 90.536 110.982 89.984 112.23 89.984C113.67 89.984 114.75 90.44 115.062 91.616H117.75ZM120.327 83.6V86.48H123.183V83.6H120.327ZM120.327 88.088V101H123.183V88.088H120.327ZM128.485 94.568C128.485 91.592 130.069 90.128 131.893 90.128C133.717 90.128 135.301 91.592 135.301 94.568C135.301 97.568 133.717 98.984 131.893 98.984C130.069 98.984 128.485 97.568 128.485 94.568ZM131.893 87.8C128.749 87.8 125.533 89.912 125.533 94.568C125.533 99.248 128.749 101.312 131.893 101.312C135.037 101.312 138.253 99.248 138.253 94.568C138.253 89.912 135.037 87.8 131.893 87.8ZM143.456 88.088H140.6V101H143.456V94.136C143.456 91.808 144.248 90.128 146.456 90.128C148.664 90.128 148.904 91.856 148.904 93.584V101H151.76V92.888C151.76 89.816 150.488 87.8 147.368 87.8C145.544 87.8 144.2 88.544 143.456 89.888V88.088ZM157.925 83.6H154.877V101H166.685V98.432H157.925V83.6ZM176.295 95.912C176.295 98.12 175.047 99.176 172.935 99.176C171.495 99.176 170.559 98.504 170.559 97.376C170.559 95.912 172.239 95.312 176.295 94.928V95.912ZM172.311 101.312C174.231 101.312 175.719 100.664 176.559 99.248C176.631 100.136 176.703 100.448 176.799 101H179.415C179.151 99.92 179.031 98.216 179.031 96.584C179.031 95.408 179.079 93.872 179.079 93.248C179.151 89.12 176.727 87.704 173.631 87.704C170.511 87.704 168.327 89.528 168.135 92.144H170.943C171.015 90.584 172.095 89.816 173.535 89.816C174.975 89.816 176.223 90.488 176.223 92.696V92.936C171.519 93.44 167.535 94.208 167.535 97.448C167.535 99.8 169.503 101.312 172.311 101.312ZM182.525 105.2C185.429 105.2 186.269 104.312 187.493 100.976L192.029 88.088H189.101L186.173 97.352L183.245 88.088H180.125L184.805 100.928L184.661 101.24C184.085 102.92 183.557 103.016 182.309 103.016H181.229V105.2H182.525ZM205.069 95.36C205.333 91.04 202.837 87.8 198.877 87.8C195.229 87.8 192.541 90.56 192.541 94.448C192.541 98.168 194.917 101.312 199.069 101.312C202.381 101.312 204.349 99.2 204.925 97.136H202.117C201.613 98.36 200.461 98.936 198.949 98.936C197.317 98.936 195.637 97.76 195.445 95.36H205.069ZM198.877 90.032C200.557 90.032 202.093 91.256 202.165 93.272H195.445C195.709 90.848 197.533 90.032 198.877 90.032ZM214.477 88.112C214.261 88.088 213.949 88.064 213.733 88.064C212.173 88.088 210.925 88.952 210.229 90.392V88.088H207.421V101H210.277V94.232C210.277 91.64 211.309 90.92 213.109 90.92C213.541 90.92 213.997 90.944 214.477 90.992V88.112ZM225.003 83.6H221.955V101H225.003V83.6ZM231.23 88.088H228.374V101H231.23V94.136C231.23 91.808 232.022 90.128 234.23 90.128C236.438 90.128 236.678 91.856 236.678 93.584V101H239.534V92.888C239.534 89.816 238.262 87.8 235.142 87.8C233.318 87.8 231.974 88.544 231.23 89.888V88.088ZM243.008 88.088H241.208V90.152H243.008V101H245.864V90.152H248.408V88.088H245.864V87.392C245.864 86.048 246.176 85.784 247.592 85.784H248.408V83.6H247.28C244.136 83.6 243.008 84.296 243.008 87.296V88.088ZM250.381 83.6V86.48H253.237V83.6H250.381ZM250.381 88.088V101H253.237V88.088H250.381ZM259.308 88.088H256.452V101H259.308V94.136C259.308 91.808 260.1 90.128 262.308 90.128C264.516 90.128 264.756 91.856 264.756 93.584V101H267.612V92.888C267.612 89.816 266.34 87.8 263.22 87.8C261.396 87.8 260.052 88.544 259.308 89.888V88.088ZM270.585 83.6V86.48H273.441V83.6H270.585ZM270.585 88.088V101H273.441V88.088H270.585ZM277.063 88.088H275.143V90.152H277.063V97.616C277.063 100.256 277.615 101 280.375 101H282.487V98.816H281.455C280.231 98.816 279.919 98.504 279.919 97.184V90.152H282.511V88.088H279.919V84.68H277.063V88.088ZM285.369 105.2C288.273 105.2 289.113 104.312 290.337 100.976L294.873 88.088H291.945L289.017 97.352L286.089 88.088H282.969L287.649 100.928L287.505 101.24C286.929 102.92 286.401 103.016 285.153 103.016H284.073V105.2H285.369Z" fill="white"/>
<path d="M30.3536 44.6464C30.1583 44.4512 29.8417 44.4512 29.6464 44.6464L26.4645 47.8284C26.2692 48.0237 26.2692 48.3403 26.4645 48.5355C26.6597 48.7308 26.9763 48.7308 27.1716 48.5355L30 45.7071L32.8284 48.5355C33.0237 48.7308 33.3403 48.7308 33.5355 48.5355C33.7308 48.3403 33.7308 48.0237 33.5355 47.8284L30.3536 44.6464ZM30.5 84L30.5 45L29.5 45L29.5 84L30.5 84Z" fill="#C2EAE0"/>
<path d="M29.6464 84.3536C29.8417 84.5488 30.1583 84.5488 30.3536 84.3536L33.5355 81.1716C33.7308 80.9763 33.7308 80.6597 33.5355 80.4645C33.3403 80.2692 33.0237 80.2692 32.8284 80.4645L30 83.2929L27.1716 80.4645C26.9763 80.2692 26.6597 80.2692 26.4645 80.4645C26.2692 80.6597 26.2692 80.9763 26.4645 81.1716L29.6464 84.3536ZM29.5 45L29.5 84L30.5 84L30.5 45L29.5 45Z" fill="#C2EAE0"/>
<path d="M343.354 44.6464C343.158 44.4512 342.842 44.4512 342.646 44.6464L339.464 47.8284C339.269 48.0237 339.269 48.3403 339.464 48.5355C339.66 48.7308 339.976 48.7308 340.172 48.5355L343 45.7071L345.828 48.5355C346.024 48.7308 346.34 48.7308 346.536 48.5355C346.731 48.3403 346.731 48.0237 346.536 47.8284L343.354 44.6464ZM343.5 84L343.5 45L342.5 45L342.5 84L343.5 84Z" fill="#C2EAE0"/>
<path d="M342.646 84.3536C342.842 84.5488 343.158 84.5488 343.354 84.3536L346.536 81.1716C346.731 80.9763 346.731 80.6597 346.536 80.4645C346.34 80.2692 346.024 80.2692 345.828 80.4645L343 83.2929L340.172 80.4645C339.976 80.2692 339.66 80.2692 339.464 80.4645C339.269 80.6597 339.269 80.9763 339.464 81.1716L342.646 84.3536ZM342.5 45L342.5 84L343.5 84L343.5 45L342.5 45Z" fill="#C2EAE0"/>
<path d="M186.646 408.354C186.842 408.549 187.158 408.549 187.354 408.354L190.536 405.172C190.731 404.976 190.731 404.66 190.536 404.464C190.34 404.269 190.024 404.269 189.828 404.464L187 407.293L184.172 404.464C183.976 404.269 183.66 404.269 183.464 404.464C183.269 404.66 183.269 404.976 183.464 405.172L186.646 408.354ZM186.5 363L186.5 408L187.5 408L187.5 363L186.5 363Z" fill="#C2EAE0"/>
<path d="M313.646 408.354C313.842 408.549 314.158 408.549 314.354 408.354L317.536 405.172C317.731 404.976 317.731 404.66 317.536 404.464C317.34 404.269 317.024 404.269 316.828 404.464L314 407.293L311.172 404.464C310.976 404.269 310.66 404.269 310.464 404.464C310.269 404.66 310.269 404.976 310.464 405.172L313.646 408.354ZM313.5 363L313.5 408L314.5 408L314.5 363L313.5 363Z" fill="#C2EAE0"/>
<path d="M58.6464 408.354C58.8417 408.549 59.1583 408.549 59.3536 408.354L62.5355 405.172C62.7308 404.976 62.7308 404.66 62.5355 404.464C62.3403 404.269 62.0237 404.269 61.8284 404.464L59 407.293L56.1716 404.464C55.9763 404.269 55.6597 404.269 55.4645 404.464C55.2692 404.66 55.2692 404.976 55.4645 405.172L58.6464 408.354ZM58.5 363L58.5 408L59.5 408L59.5 363L58.5 363Z" fill="#C2EAE0"/>
<line x1="187.5" y1="113" x2="187.5" y2="144" stroke="#C2EAE0"/>
<line x1="249.5" y1="308" x2="249.5" y2="357" stroke="#C2EAE0"/>
<line x1="123.5" y1="308" x2="123.5" y2="357" stroke="#C2EAE0"/>
</svg>
